<svg xmlns="http://www.w3.org/2000/svg" xmlns:xlink="http://www.w3.org/1999/xlink" xmlns:lucid="lucid" width="1440" height="682"><g transform="translate(-100 -299)" lucid:page-tab-id="0_0"><g filter="url(#a)"><path d="M520 325c0-2.76 2.24-5 5-5h607.14c2.76 0 5 2.24 5 5v630c0 2.76-2.24 5-5 5H525c-2.76 0-5-2.24-5-5z" stroke="#000" stroke-width="2" fill="#fff"/><use xlink:href="#b" transform="matrix(1,0,0,1,525,325) translate(212.1172839506173 17.77777777777778)"/><use xlink:href="#c" transform="matrix(1,0,0,1,525,325) translate(311.9320987654321 17.77777777777778)"/></g><g filter="url(#d)"><path d="M1008.57 385c0-2.76 2.24-5 5-5h144.3c2.75 0 5 2.24 5 5v43.2c0 2.76-2.25 5-5 5h-144.3c-2.76 0-5-2.24-5-5z" stroke="#000" stroke-width="2" fill="#fff"/><use xlink:href="#e" transform="matrix(1,0,0,1,1013.5714285714287,385) translate(9.549999999999997 14.799999999999999)"/><use xlink:href="#f" transform="matrix(1,0,0,1,1013.5714285714287,385) translate(68.5 14.799999999999999)"/><use xlink:href="#g" transform="matrix(1,0,0,1,1013.5714285714287,385) translate(53.525 36.4)"/></g><g filter="url(#h)"><path d="M630 862c0-1.1.9-2 2-2h96c1.1 0 2 .9 2 2v56c0 1.1-.9 2-2 2h-96c-1.1 0-2-.9-2-2z" stroke="#000" stroke-width="2" fill="#ffdba9"/><use xlink:href="#i" transform="matrix(1,0,0,1,635,865) translate(7.074999999999996 17.799999999999997)"/><use xlink:href="#j" transform="matrix(1,0,0,1,635,865) translate(8.099999999999994 39.4)"/></g><g filter="url(#h)"><path d="M827.14 862c0-1.1.9-2 2-2h96c1.1 0 2 .9 2 2v56c0 1.1-.9 2-2 2h-96c-1.1 0-2-.9-2-2z" stroke="#000" stroke-width="2" fill="#ffdba9"/><use xlink:href="#k" transform="matrix(1,0,0,1,832.1428571428571,865) translate(0.5499999999999972 28.6)"/></g><path d="M180.15 641.86c-33.22 0-60.15-41.17-60.15-91.96 0-40.63 16.3-74.9 41.56-87.46C160.1 343 260.36 320 300.46 365.98c20.04-68.97 120.3-45.98 120.3 23 60.14-23 120.3 68.96 80.2 183.9 40.1 91.97 0 206.92-80.2 160.94-20.06 59.77-100.26 59.77-120.3 0-40.1 45.98-120.3 23-120.3-91.96z" stroke="#000" stroke-width="2" fill="#fff"/><g filter="url(#l)"><path d="M500 425.1c0-2.76 2.24-5 5-5h110c2.76 0 5 2.24 5 5v43.2c0 2.76-2.24 5-5 5H505c-2.76 0-5-2.24-5-5z" stroke="#000" stroke-width="2" fill="#99d5ca"/><use xlink:href="#m" transform="matrix(1,0,0,1,505,425.1000000000117) translate(7.074999999999996 25.6)"/><use xlink:href="#g" transform="matrix(1,0,0,1,505,425.1000000000117) translate(64.975 25.6)"/></g><path d="M680 859l-59.37-176.54" stroke="#834187" stroke-width="2" fill="none"/><path d="M681.4 860h-2.12l-.23-.68 1.9-.64z" fill="#834187"/><path d="M635.76 695.53l-15.13-13.07-4.17 19.56M680 859l19.78-176.45" stroke="#834187" stroke-width="2" fill="none"/><path d="M681 859.1l-.1.9h-2.02l.13-1.1z" fill="#834187"/><path d="M707.98 700.8l-8.2-18.25-12.03 15.98M680 859l215.62-177.15" stroke="#834187" stroke-width="2" fill="none"/><path d="M680.63 859.77l-.27.23h-3.15l2.17-1.77z" fill="#834187"/><path d="M888.8 700.64l6.82-18.8-19.76 3.07M877.14 859l19.78-176.45" stroke="#834187" stroke-width="2" fill="none"/><path d="M878.14 859.1l-.1.9h-2.02l.13-1.1z" fill="#834187"/><path d="M905.12 700.8l-8.2-18.25-12.03 15.98M495.3 682.63l329.18 206.33" stroke="#834187" stroke-width="2" fill="none"/><path d="M495.82 681.8l-1.07 1.68-.46-.3v-2.35z" fill="#834187"/><path d="M804.48 888.44l20 .52-9.18-17.77M495.3 682.63l132.64 205.72" stroke="#834187" stroke-width="2" fill="none"/><path d="M496.13 682.1l-1.68 1.08-.16-.25v-3.22l.2-.13z" fill="#834187"/><path d="M610.05 879.4l17.9 8.95-.8-20" stroke="#834187" stroke-width="2" fill="none"/><path d="M1336.26 334.4l-83.86 104.67" stroke="#7ab648" stroke-width="2" fill="none"/><path fill="#7ab648"/><path d="M1243.02 450.77l5.3-14.03 7.24 5.8z" stroke="#7ab648" stroke-width="2" fill="#7ab648"/><g filter="url(#n)"><path d="M820 525c0-2.76 2.24-5 5-5h144.3c2.75 0 5 2.24 5 5v149.6c0 2.76-2.25 5-5 5H825c-2.76 0-5-2.24-5-5z" stroke="#000" stroke-width="2" fill="#ff8f80"/><use xlink:href="#o" transform="matrix(1,0,0,1,825,525) translate(41.55 14.4)"/></g><g filter="url(#p)"><path d="M837.14 564.9c0-2.76 2.24-5 5-5h110c2.76 0 5 2.24 5 5v43.2c0 2.76-2.24 5-5 5h-110c-2.76 0-5-2.24-5-5z" stroke="#000" stroke-width="2" fill="#ff8f80"/><use xlink:href="#q" transform="matrix(1,0,0,1,842.1428571428571,564.9000000000116) translate(31.25 25.6)"/></g><g filter="url(#p)"><path d="M837.14 618.1c0-2.76 2.24-5 5-5h110c2.76 0 5 2.24 5 5v43.2c0 2.76-2.24 5-5 5h-110c-2.76 0-5-2.24-5-5z" stroke="#000" stroke-width="2" fill="#ff8f80"/><use xlink:href="#r" transform="matrix(1,0,0,1,842.1428571428571,618.1000000000115) translate(31.724999999999998 25.6)"/></g><path d="M1007.57 486.6l-41.34 83.56" stroke="#7ab648" stroke-width="2" fill="none"/><path d="M1008.57 483.75v3.08l-.1.2-1.8-.87 1.34-2.7z" fill="#7ab648"/><path d="M959.58 583.6l2.17-14.84 8.3 4.1z" stroke="#7ab648" stroke-width="2" fill="#7ab648"/><path d="M836.14 586.5l-59.03-31.35" stroke="#7ab648" stroke-width="2" fill="none"/><path d="M837.14 585.9v2.26l-1.47-.78.94-1.76z" fill="#7ab648"/><path d="M763.86 548.12l14.77 2.6-4.35 8.18z" stroke="#7ab648" stroke-width="2" fill="#7ab648"/><path d="M241 533.3h80v59.73h-80z" stroke="#000" stroke-width="2" fill="#ef8d22"/><use xlink:href="#s" transform="matrix(1,0,0,1,246,538.2999999999884) translate(11.5 28.6)"/><use xlink:href="#t" transform="matrix(1,0,0,1,246,538.2999999999884) translate(48.5 28.6)"/><path d="M241 593.03h80v59.74h-80z" stroke="#000" stroke-width="2" fill="#ef8d22"/><use xlink:href="#s" transform="matrix(1,0,0,1,246,598.0333333333216) translate(11.5 28.6)"/><use xlink:href="#u" transform="matrix(1,0,0,1,246,598.0333333333216) translate(48.5 28.6)"/><path d="M359 468.2l-30.38 77.97" stroke="#7ab648" stroke-width="2" fill="none"/><path d="M360 465.37v3.02l-.07.16-1.86-.73 1.1-2.8z" fill="#7ab648"/><path d="M323.17 560.15l.86-14.97 8.64 3.36z" stroke="#7ab648" stroke-width="2" fill="#7ab648"/><path d="M359 468.16l-32.76 137" stroke="#7ab648" stroke-width="2" fill="none"/><path d="M360 465.3v2.98l-.03.1-1.94-.45.7-2.92z" fill="#7ab648"/><path d="M322.75 619.75l-1.2-14.95 9.03 2.16z" stroke="#7ab648" stroke-width="2" fill="#7ab648"/><path d="M360 436.5h110v63.4H360z" stroke="#000" stroke-width="2" fill="#ef8d22"/><use xlink:href="#v" transform="matrix(1,0,0,1,365,441.4947368420923) translate(20.049999999999997 30.6)"/><path d="M1240.18 466.78l28.78-35.4" stroke="#0c7cba" stroke-width="2" fill="none"/><path d="M1240.96 467.4l-1.9 2.34-1.55-1.26 1.9-2.33z" fill="#0c7cba"/><path d="M1278.42 419.75l-5.4 14-7.2-5.85z" stroke="#0c7cba" stroke-width="2" fill="#fff"/><path d="M700 519l-65.55-60" stroke="#7ab648" stroke-width="2" fill="none"/><path d="M702.57 520h-2.96l-.28-.26 1.36-1.48z" fill="#7ab648"/><path d="M623.4 448.88l13.64 6.22-6.26 6.84z" stroke="#7ab648" stroke-width="2" fill="#7ab648"/><path d="M322 622.9l222.53-138.94" stroke="#0c7cba" stroke-width="2" fill="none"/><path d="M322.53 623.75l-1.53.95v-2.35l.47-.3z" fill="#0c7cba"/><path d="M557.26 476l-9.65 11.5-4.9-7.86z" stroke="#0c7cba" stroke-width="2" fill="#fff"/><path d="M322 563.17l220.92-82.5" stroke="#0c7cba" stroke-width="2" fill="none"/><path d="M322.35 564.1l-1.35.5v-2.13l.65-.24z" fill="#0c7cba"/><path d="M556.97 475.43l-11.74 9.33-3.25-8.68z" stroke="#0c7cba" stroke-width="2" fill="#fff"/><path d="M761 599.8l59.04 31.35" stroke="#0c7cba" stroke-width="2" fill="none"/><path d="M761.47 598.92l-.94 1.76-.53-.28v-2.26z" fill="#0c7cba"/><path d="M833.28 638.18l-14.77-2.6 4.36-8.18z" stroke="#0c7cba" stroke-width="2" fill="#fff"/><path d="M958.14 639.7l52-109.04" stroke="#0c7cba" stroke-width="2" fill="none"/><path d="M959.05 640.13l-1.3 2.7-.6-.28v-3.08l.1-.2z" fill="#0c7cba"/><path d="M1016.6 517.12l-1.95 14.87-8.37-4z" stroke="#0c7cba" stroke-width="2" fill="#fff"/><path d="M499 446.7l-13.54 10.4" stroke="#7ab648" stroke-width="2" fill="none"/><path d="M500 447.2l-.4.3-1.2-1.6 1.6-1.23z" fill="#7ab648"/><path d="M473.57 466.23l8.5-12.37 5.64 7.36z" stroke="#7ab648" stroke-width="2" fill="#7ab648"/><g filter="url(#d)"><path d="M1008.57 591.5c0-2.76 2.24-5 5-5h144.3c2.75 0 5 2.24 5 5v43.2c0 2.76-2.25 5-5 5h-144.3c-2.76 0-5-2.24-5-5z" stroke="#000" stroke-width="2" fill="#99d5ca"/><use xlink:href="#w" transform="matrix(1,0,0,1,1013.5714285714287,591.4999999999884) translate(11.574999999999996 25.6)"/><use xlink:href="#x" transform="matrix(1,0,0,1,1013.5714285714287,591.4999999999884) translate(80.475 25.6)"/><use xlink:href="#u" transform="matrix(1,0,0,1,1013.5714285714287,591.4999999999884) translate(123.42500000000001 25.6)"/></g><g filter="url(#y)"><path d="M1162.86 568.45c0-1.1.9-2 2-2H1238c1.1 0 2 .9 2 2v22.6c0 1.1-.9 2-2 2h-73.14c-1.1 0-2-.9-2-2z" stroke="#000" stroke-width="2" fill="#99d5ca"/><use xlink:href="#z" transform="matrix(1,0,0,1,1167.857142857143,571.4499999999944) translate(5.5 14.4)"/></g><g filter="url(#y)"><path d="M1162.86 601.8c0-1.1.9-2 2-2H1238c1.1 0 2 .9 2 2v22.6c0 1.1-.9 2-2 2h-73.14c-1.1 0-2-.9-2-2z" stroke="#000" stroke-width="2" fill="#99d5ca"/><use xlink:href="#A" transform="matrix(1,0,0,1,1167.857142857143,604.8000000000002) translate(5.5 14.4)"/></g><g filter="url(#y)"><path d="M1162.86 635.15c0-1.1.9-2 2-2H1238c1.1 0 2 .9 2 2v22.6c0 1.1-.9 2-2 2h-73.14c-1.1 0-2-.9-2-2z" stroke="#000" stroke-width="2" fill="#99d5ca"/><use xlink:href="#B" transform="matrix(1,0,0,1,1167.857142857143,638.150000000006) translate(4.024999999999999 14.4)"/></g><path d="M384.3 652.77h110v59.73h-110z" stroke="#000" stroke-width="2" fill="#ffdba9"/><use xlink:href="#C" transform="matrix(1,0,0,1,389.2857142857142,657.7666666666549) translate(13.074999999999996 28.6)"/><path d="M180 380h240v60H180z" stroke="#000" stroke-opacity="0" stroke-width="2" fill="#fff" fill-opacity="0"/><use xlink:href="#D" transform="matrix(1,0,0,1,185,385) translate(20.06172839506172 29.444444444444443)"/><use xlink:href="#E" transform="matrix(1,0,0,1,185,385) translate(139.75308641975306 29.444444444444443)"/><path d="M1315.57 474c-19.64 0-35.57-19.7-35.57-44 0-19.44 9.63-35.84 24.58-41.85C1303.7 331 1363 320 1386.7 342c11.87-33 71.16-22 71.16 11 35.57-11 71.14 33 47.43 88 23.7 44 0 99-47.44 77-11.86 28.6-59.3 28.6-71.15 0-23.7 22-71.13 11-71.13-44z" stroke="#000" stroke-width="2" fill="#fff"/><use xlink:href="#F" transform="matrix(1,0,0,1,1285,325) translate(85.2962962962963 109.44444444444446)"/><g filter="url(#d)"><path d="M1008.57 465c0-2.76 2.24-5 5-5h144.3c2.75 0 5 2.24 5 5v43.2c0 2.76-2.25 5-5 5h-144.3c-2.76 0-5-2.24-5-5z" stroke="#000" stroke-width="2" fill="#99d5ca"/><use xlink:href="#w" transform="matrix(1,0,0,1,1013.5714285714287,465) translate(11.574999999999996 25.6)"/><use xlink:href="#x" transform="matrix(1,0,0,1,1013.5714285714287,465) translate(80.475 25.6)"/><use xlink:href="#t" transform="matrix(1,0,0,1,1013.5714285714287,465) translate(123.42500000000001 25.6)"/></g><g filter="url(#y)"><path d="M1162.86 442c0-1.1.9-2 2-2H1238c1.1 0 2 .9 2 2v22.6c0 1.1-.9 2-2 2h-73.14c-1.1 0-2-.9-2-2z" stroke="#000" stroke-width="2" fill="#99d5ca"/><use xlink:href="#G" transform="matrix(1,0,0,1,1167.857142857143,445) translate(5.5 14.4)"/></g><g filter="url(#y)"><path d="M1162.86 475.3c0-1.1.9-2 2-2H1238c1.1 0 2 .9 2 2v22.6c0 1.1-.9 2-2 2h-73.14c-1.1 0-2-.9-2-2z" stroke="#000" stroke-width="2" fill="#99d5ca"/><use xlink:href="#H" transform="matrix(1,0,0,1,1167.857142857143,478.30000000001166) translate(5.5 14.4)"/></g><g filter="url(#y)"><path d="M1162.86 508.7c0-1.1.9-2 2-2H1238c1.1 0 2 .9 2 2v22.6c0 1.1-.9 2-2 2h-73.14c-1.1 0-2-.9-2-2z" stroke="#000" stroke-width="2" fill="#99d5ca"/><use xlink:href="#I" transform="matrix(1,0,0,1,1167.857142857143,511.70000000001164) translate(4.024999999999999 14.4)"/></g><path d="M1280 599.8h237.14V960H1280z" fill="#fff"/><path d="M1319.52 599.8h39.53m19.76 0h39.53m19.77 0h39.52m19.76 0h19.76v20m0 20.02v40.02m0 20.02v40.02m0 20v40.03m0 20.02v40.02m0 20.02v40.02m0 20V960h-19.76m-19.76 0h-39.52m-19.77 0h-39.52m-19.75 0h-39.53m-19.76 0H1280v-20m0-20.02v-40.02m0-20.02v-40.02m0-20v-40.03m0-20.02v-40.02m0-20.02v-40.02m0-20V599.8h19.76" stroke="#000" stroke-width="2" fill="none"/><use xlink:href="#J" transform="matrix(1,0,0,1,1285,604.8000000000466) translate(0 14.4)"/><path d="M560 474.3l33.6 108.1" stroke="#0c7cba" stroke-width="2" fill="none"/><path d="M560.95 474l-1.9.6-.4-1.3h2.1z" fill="#0c7cba"/><path d="M598.04 596.7l-8.66-12.24 8.85-2.75z" stroke="#0c7cba" stroke-width="2" fill="#fff"/><path d="M700 574.2v12.9h-20v10.94" stroke="#000" stroke-width="2" fill="none"/><path d="M701 574.36l-2-.32.15-.84h2.03z"/><path d="M673.03 579.43l7.3 18.63 12.8-15.35" stroke="#000" stroke-width="2" fill="none"/><g filter="url(#l)"><path d="M640 578.2c0-2.76 2.24-5 5-5h110c2.76 0 5 2.24 5 5v43.2c0 2.76-2.24 5-5 5H645c-2.76 0-5-2.24-5-5z" stroke="#000" stroke-width="2" fill="#ff8f80"/><use xlink:href="#K" transform="matrix(1,0,0,1,645,578.1999999999999) translate(14.024999999999999 14.799999999999999)"/><use xlink:href="#x" transform="matrix(1,0,0,1,645,578.1999999999999) translate(43.025 14.799999999999999)"/><use xlink:href="#L" transform="matrix(1,0,0,1,645,578.1999999999999) translate(85.975 14.799999999999999)"/><use xlink:href="#M" transform="matrix(1,0,0,1,645,578.1999999999999) translate(5.575000000000003 36.4)"/><use xlink:href="#N" transform="matrix(1,0,0,1,645,578.1999999999999) translate(65.475 36.4)"/></g><g filter="url(#l)"><path d="M640 525c0-2.76 2.24-5 5-5h110c2.76 0 5 2.24 5 5v43.2c0 2.76-2.24 5-5 5H645c-2.76 0-5-2.24-5-5z" stroke="#000" stroke-width="2" fill="#ff8f80"/><use xlink:href="#O" transform="matrix(1,0,0,1,645,525) translate(5.599999999999994 14.799999999999999)"/><use xlink:href="#P" transform="matrix(1,0,0,1,645,525) translate(49.5 14.799999999999999)"/><use xlink:href="#N" transform="matrix(1,0,0,1,645,525) translate(35.525 36.4)"/></g><g filter="url(#l)"><path d="M640 631.4c0-2.76 2.24-5 5-5h110c2.76 0 5 2.24 5 5v43.2c0 2.76-2.24 5-5 5H645c-2.76 0-5-2.24-5-5z" stroke="#000" stroke-width="2" fill="#ff8f80"/><use xlink:href="#K" transform="matrix(1,0,0,1,645,631.4) translate(14.024999999999999 14.799999999999999)"/><use xlink:href="#x" transform="matrix(1,0,0,1,645,631.4) translate(43.025 14.799999999999999)"/><use xlink:href="#Q" transform="matrix(1,0,0,1,645,631.4) translate(85.975 14.799999999999999)"/><use xlink:href="#M" transform="matrix(1,0,0,1,645,631.4) translate(5.575000000000003 36.4)"/><use xlink:href="#N" transform="matrix(1,0,0,1,645,631.4) translate(65.475 36.4)"/></g><g filter="url(#R)"><path d="M600 525c0-2.76 2.24-5 5-5h30c2.76 0 5 2.24 5 5v149.6c0 2.76-2.24 5-5 5h-30c-2.76 0-5-2.24-5-5z" stroke="#000" stroke-width="2" fill="#ff8f80"/><use xlink:href="#S" transform="matrix(-1.8369701987210297e-16,-1,1,-1.8369701987210297e-16,605,674.5999999999999) translate(25.6 18.6)"/><use xlink:href="#T" transform="matrix(-1.8369701987210297e-16,-1,1,-1.8369701987210297e-16,605,674.5999999999999) translate(85.5 18.6)"/></g><path d="M1306 658.6l63.37 1.37M1306 658.6l-3-.07M1351.94 669.77l17.43-9.8-17-10.55" stroke="#834187" stroke-width="2" fill="none"/><path d="M1375.7 631.6h141.44v60H1375.7z" stroke="#000" stroke-opacity="0" stroke-width="2" fill="#fff" fill-opacity="0"/><use xlink:href="#U" transform="matrix(1,0,0,1,1380.7142857143358,636.5999999999999) translate(0 28.6)"/><use xlink:href="#V" transform="matrix(1,0,0,1,1380.7142857143358,636.5999999999999) translate(62.85000000000001 28.6)"/><path d="M1307.33 694h47.1M1307.33 694h-3" stroke="#7ab648" stroke-width="2" fill="none"/><path d="M1369.43 694l-14.27 4.64v-9.28z" stroke="#7ab648" stroke-width="2" fill="#7ab648"/><path d="M1375.7 666.3H1520v60h-144.3z" stroke="#000" stroke-opacity="0" stroke-width="2" fill="#fff" fill-opacity="0"/><use xlink:href="#W" transform="matrix(1,0,0,1,1380.7142857143358,671.3000000000466) translate(0 28.6)"/><use xlink:href="#X" transform="matrix(1,0,0,1,1380.7142857143358,671.3000000000466) translate(42.95 28.6)"/><use xlink:href="#Y" transform="matrix(1,0,0,1,1380.7142857143358,671.3000000000466) translate(79.85 28.6)"/><path d="M1307.33 732.2l50.16 1.7" stroke="#3aa6dd" stroke-width="2" fill="none"/><path d="M1372.48 734.4l-14.4 4.14.3-9.26z" stroke="#3aa6dd" stroke-width="2" fill="#fff"/><path d="M1375.7 704.5H1520v60h-144.3z" stroke="#000" stroke-opacity="0" stroke-width="2" fill="#fff" fill-opacity="0"/><g><use xlink:href="#W" transform="matrix(1,0,0,1,1380.7142857143358,709.4999999999883) translate(0 28.6)"/><use xlink:href="#X" transform="matrix(1,0,0,1,1380.7142857143358,709.4999999999883) translate(42.95 28.6)"/><use xlink:href="#Z" transform="matrix(1,0,0,1,1380.7142857143358,709.4999999999883) translate(79.85 28.6)"/></g><defs><path d="M185-189c-5-48-123-54-124 2 14 75 158 14 163 119 3 78-121 87-175 55-17-10-28-26-33-46l33-7c5 56 141 63 141-1 0-78-155-14-162-118-5-82 145-84 179-34 5 7 8 16 11 25" id="aa"/><path d="M210-169c-67 3-38 105-44 169h-31v-121c0-29-5-50-35-48C34-165 62-65 56 0H25l-1-190h30c1 10-1 24 2 32 10-44 99-50 107 0 11-21 27-35 58-36 85-2 47 119 55 194h-31v-121c0-29-5-49-35-48" id="ab"/><path d="M141-36C126-15 110 5 73 4 37 3 15-17 15-53c-1-64 63-63 125-63 3-35-9-54-41-54-24 1-41 7-42 31l-33-3c5-37 33-52 76-52 45 0 72 20 72 64v82c-1 20 7 32 28 27v20c-31 9-61-2-59-35zM48-53c0 20 12 33 32 33 41-3 63-29 60-74-43 2-92-5-92 41" id="ac"/><path d="M114-163C36-179 61-72 57 0H25l-1-190h30c1 12-1 29 2 39 6-27 23-49 58-41v29" id="ad"/><path d="M59-47c-2 24 18 29 38 22v24C64 9 27 4 27-40v-127H5v-23h24l9-43h21v43h35v23H59v120" id="ae"/><path d="M190 0L58-211 59 0H30v-248h39L202-35l-2-213h31V0h-41" id="af"/><g id="b"><use transform="matrix(0.06172839506172839,0,0,0.06172839506172839,0,0)" xlink:href="#aa"/><use transform="matrix(0.06172839506172839,0,0,0.06172839506172839,14.814814814814813,0)" xlink:href="#ab"/><use transform="matrix(0.06172839506172839,0,0,0.06172839506172839,33.2716049382716,0)" xlink:href="#ac"/><use transform="matrix(0.06172839506172839,0,0,0.06172839506172839,45.61728395061728,0)" xlink:href="#ad"/><use transform="matrix(0.06172839506172839,0,0,0.06172839506172839,52.962962962962955,0)" xlink:href="#ae"/><use transform="matrix(0.06172839506172839,0,0,0.06172839506172839,59.1358024691358,0)" xlink:href="#af"/><use transform="matrix(0.06172839506172839,0,0,0.06172839506172839,75.12345679012346,0)" xlink:href="#ac"/><use transform="matrix(0.06172839506172839,0,0,0.06172839506172839,87.46913580246914,0)" xlink:href="#ae"/></g><path d="M33 0v-248h34V0H33" id="ag"/><path d="M117-194c89-4 53 116 60 194h-32v-121c0-31-8-49-39-48C34-167 62-67 57 0H25l-1-190h30c1 10-1 24 2 32 11-22 29-35 61-36" id="ah"/><path d="M135-143c-3-34-86-38-87 0 15 53 115 12 119 90S17 21 10-45l28-5c4 36 97 45 98 0-10-56-113-15-118-90-4-57 82-63 122-42 12 7 21 19 24 35" id="ai"/><path d="M96-169c-40 0-48 33-48 73s9 75 48 75c24 0 41-14 43-38l32 2c-6 37-31 61-74 61-59 0-76-41-82-99-10-93 101-131 147-64 4 7 5 14 7 22l-32 3c-4-21-16-35-41-35" id="aj"/><path d="M100-194c63 0 86 42 84 106H49c0 40 14 67 53 68 26 1 43-12 49-29l28 8c-11 28-37 45-77 45C44 4 14-33 15-96c1-61 26-98 85-98zm52 81c6-60-76-77-97-28-3 7-6 17-6 28h103" id="ak"/><g id="c"><use transform="matrix(0.06172839506172839,0,0,0.06172839506172839,0,0)" xlink:href="#ag"/><use transform="matrix(0.06172839506172839,0,0,0.06172839506172839,6.172839506172839,0)" xlink:href="#ah"/><use transform="matrix(0.06172839506172839,0,0,0.06172839506172839,18.51851851851852,0)" xlink:href="#ai"/><use transform="matrix(0.06172839506172839,0,0,0.06172839506172839,29.62962962962963,0)" xlink:href="#ae"/><use transform="matrix(0.06172839506172839,0,0,0.06172839506172839,35.80246913580247,0)" xlink:href="#ac"/><use transform="matrix(0.06172839506172839,0,0,0.06172839506172839,48.148148148148145,0)" xlink:href="#ah"/><use transform="matrix(0.06172839506172839,0,0,0.06172839506172839,60.49382716049382,0)" xlink:href="#aj"/><use transform="matrix(0.06172839506172839,0,0,0.06172839506172839,71.60493827160494,0)" xlink:href="#ak"/></g><filter id="a" filterUnits="objectBoundingBox" x="-.02" y="-.01" width="1.03" height="1.03"><feOffset result="offOut" in="SourceAlpha" dy="6"/><feGaussianBlur result="blurOut" in="offOut" stdDeviation="5"/><feColorMatrix result="colorOut" in="blurOut" values="0 0 0 0 0 0 0 0 0 0 0 0 0 0 0 0 0 0 0.5019607843137255 0"/><feBlend in="SourceGraphic" in2="colorOut"/></filter><path d="M85-194c31 0 48 13 60 33l-1-100h32l1 261h-30c-2-10 0-23-3-31C134-8 116 4 85 4 32 4 16-35 15-94c0-66 23-100 70-100zm9 24c-40 0-46 34-46 75 0 40 6 74 45 74 42 0 51-32 51-76 0-42-9-74-50-73" id="al"/><path d="M101-234c-31-9-42 10-38 44h38v23H63V0H32v-167H5v-23h27c-7-52 17-82 69-68v24" id="am"/><path d="M84 4C-5 8 30-112 23-190h32v120c0 31 7 50 39 49 72-2 45-101 50-169h31l1 190h-30c-1-10 1-25-2-33-11 22-28 36-60 37" id="an"/><path d="M24 0v-261h32V0H24" id="ao"/><g id="e"><use transform="matrix(0.05,0,0,0.05,0,0)" xlink:href="#al"/><use transform="matrix(0.05,0,0,0.05,10,0)" xlink:href="#ak"/><use transform="matrix(0.05,0,0,0.05,20,0)" xlink:href="#am"/><use transform="matrix(0.05,0,0,0.05,25,0)" xlink:href="#ac"/><use transform="matrix(0.05,0,0,0.05,35,0)" xlink:href="#an"/><use transform="matrix(0.05,0,0,0.05,45,0)" xlink:href="#ao"/><use transform="matrix(0.05,0,0,0.05,48.95,0)" xlink:href="#ae"/></g><path d="M177-190C167-65 218 103 67 71c-23-6-38-20-44-43l32-5c15 47 100 32 89-28v-30C133-14 115 1 83 1 29 1 15-40 15-95c0-56 16-97 71-98 29-1 48 16 59 35 1-10 0-23 2-32h30zM94-22c36 0 50-32 50-73 0-42-14-75-50-75-39 0-46 34-46 75s6 73 46 73" id="ap"/><path d="M206 0h-36l-40-164L89 0H53L-1-190h32L70-26l43-164h34l41 164 42-164h31" id="aq"/><path d="M179-190L93 31C79 59 56 82 12 73V49c39 6 53-20 64-50L1-190h34L92-34l54-156h33" id="ar"/><g id="f"><use transform="matrix(0.05,0,0,0.05,0,0)" xlink:href="#ap"/><use transform="matrix(0.05,0,0,0.05,10,0)" xlink:href="#ac"/><use transform="matrix(0.05,0,0,0.05,20,0)" xlink:href="#ae"/><use transform="matrix(0.05,0,0,0.05,25,0)" xlink:href="#ak"/><use transform="matrix(0.05,0,0,0.05,35,0)" xlink:href="#aq"/><use transform="matrix(0.05,0,0,0.05,47.95,0)" xlink:href="#ac"/><use transform="matrix(0.05,0,0,0.05,57.95,0)" xlink:href="#ar"/></g><path d="M24-231v-30h32v30H24zM24 0v-190h32V0H24" id="as"/><g id="g"><use transform="matrix(0.05,0,0,0.05,0,0)" xlink:href="#as"/><use transform="matrix(0.05,0,0,0.05,3.95,0)" xlink:href="#am"/><use transform="matrix(0.05,0,0,0.05,8.95,0)" xlink:href="#ac"/><use transform="matrix(0.05,0,0,0.05,18.95,0)" xlink:href="#aj"/><use transform="matrix(0.05,0,0,0.05,27.950000000000003,0)" xlink:href="#ak"/></g><filter id="d" filterUnits="objectBoundingBox" x="-.06" y="-.08" width="1.13" height="1.38"><feOffset result="offOut" in="SourceAlpha" dy="6"/><feGaussianBlur result="blurOut" in="offOut" stdDeviation="5"/><feColorMatrix result="colorOut" in="blurOut" values="0 0 0 0 0 0 0 0 0 0 0 0 0 0 0 0 0 0 0.5019607843137255 0"/><feBlend in="SourceGraphic" in2="colorOut"/></filter><g id="i"><use transform="matrix(0.05,0,0,0.05,0,0)" xlink:href="#aa"/><use transform="matrix(0.05,0,0,0.05,12,0)" xlink:href="#ab"/><use transform="matrix(0.05,0,0,0.05,26.950000000000003,0)" xlink:href="#ac"/><use transform="matrix(0.05,0,0,0.05,36.95,0)" xlink:href="#ad"/><use transform="matrix(0.05,0,0,0.05,42.900000000000006,0)" xlink:href="#ae"/><use transform="matrix(0.05,0,0,0.05,47.900000000000006,0)" xlink:href="#af"/><use transform="matrix(0.05,0,0,0.05,60.85,0)" xlink:href="#ac"/><use transform="matrix(0.05,0,0,0.05,70.85000000000001,0)" xlink:href="#ae"/></g><path d="M100-194c62-1 85 37 85 99 1 63-27 99-86 99S16-35 15-95c0-66 28-99 85-99zM99-20c44 1 53-31 53-75 0-43-8-75-51-75s-53 32-53 75 10 74 51 75" id="at"/><g id="j"><use transform="matrix(0.05,0,0,0.05,0,0)" xlink:href="#aj"/><use transform="matrix(0.05,0,0,0.05,9,0)" xlink:href="#at"/><use transform="matrix(0.05,0,0,0.05,19,0)" xlink:href="#ah"/><use transform="matrix(0.05,0,0,0.05,29,0)" xlink:href="#ae"/><use transform="matrix(0.05,0,0,0.05,34,0)" xlink:href="#ad"/><use transform="matrix(0.05,0,0,0.05,39.95,0)" xlink:href="#at"/><use transform="matrix(0.05,0,0,0.05,49.95,0)" xlink:href="#ao"/><use transform="matrix(0.05,0,0,0.05,53.900000000000006,0)" xlink:href="#ao"/><use transform="matrix(0.05,0,0,0.05,57.85,0)" xlink:href="#ak"/><use transform="matrix(0.05,0,0,0.05,67.85000000000001,0)" xlink:href="#ad"/></g><filter id="h" filterUnits="objectBoundingBox" x="-.1" y="-.07" width="1.2" height="1.33"><feOffset result="offOut" in="SourceAlpha" dy="6"/><feGaussianBlur result="blurOut" in="offOut" stdDeviation="5"/><feColorMatrix result="colorOut" in="blurOut" values="0 0 0 0 0 0 0 0 0 0 0 0 0 0 0 0 0 0 0.5019607843137255 0"/><feBlend in="SourceGraphic" in2="colorOut"/></filter><path d="M143 0L79-87 56-68V0H24v-261h32v163l83-92h37l-77 82L181 0h-38" id="au"/><path d="M115-194c53 0 69 39 70 98 0 66-23 100-70 100C84 3 66-7 56-30L54 0H23l1-261h32v101c10-23 28-34 59-34zm-8 174c40 0 45-34 45-75 0-40-5-75-45-74-42 0-51 32-51 76 0 43 10 73 51 73" id="av"/><path d="M16-82v-28h88v28H16" id="aw"/><path d="M115-194c55 1 70 41 70 98S169 2 115 4C84 4 66-9 55-30l1 105H24l-1-265h31l2 30c10-21 28-34 59-34zm-8 174c40 0 45-34 45-75s-6-73-45-74c-42 0-51 32-51 76 0 43 10 73 51 73" id="ax"/><path d="M141 0L90-78 38 0H4l68-98-65-92h35l48 74 47-74h35l-64 92 68 98h-35" id="ay"/><g id="k"><use transform="matrix(0.05,0,0,0.05,0,0)" xlink:href="#au"/><use transform="matrix(0.05,0,0,0.05,9,0)" xlink:href="#an"/><use transform="matrix(0.05,0,0,0.05,19,0)" xlink:href="#av"/><use transform="matrix(0.05,0,0,0.05,29,0)" xlink:href="#ak"/><use transform="matrix(0.05,0,0,0.05,39,0)" xlink:href="#aw"/><use transform="matrix(0.05,0,0,0.05,44.95,0)" xlink:href="#ax"/><use transform="matrix(0.05,0,0,0.05,54.95,0)" xlink:href="#ad"/><use transform="matrix(0.05,0,0,0.05,60.900000000000006,0)" xlink:href="#at"/><use transform="matrix(0.05,0,0,0.05,70.9,0)" xlink:href="#ay"/><use transform="matrix(0.05,0,0,0.05,79.9,0)" xlink:href="#ar"/></g><g id="m"><use transform="matrix(0.05,0,0,0.05,0,0)" xlink:href="#aj"/><use transform="matrix(0.05,0,0,0.05,9,0)" xlink:href="#ao"/><use transform="matrix(0.05,0,0,0.05,12.949999999999998,0)" xlink:href="#an"/><use transform="matrix(0.05,0,0,0.05,22.95,0)" xlink:href="#ai"/><use transform="matrix(0.05,0,0,0.05,31.950000000000003,0)" xlink:href="#ae"/><use transform="matrix(0.05,0,0,0.05,36.95,0)" xlink:href="#ak"/><use transform="matrix(0.05,0,0,0.05,46.95,0)" xlink:href="#ad"/></g><filter id="l" filterUnits="objectBoundingBox" x="-.08" y="-.08" width="1.17" height="1.38"><feOffset result="offOut" in="SourceAlpha" dy="6"/><feGaussianBlur result="blurOut" in="offOut" stdDeviation="5"/><feColorMatrix result="colorOut" in="blurOut" values="0 0 0 0 0 0 0 0 0 0 0 0 0 0 0 0 0 0 0.5019607843137255 0"/><feBlend in="SourceGraphic" in2="colorOut"/></filter><g id="o"><use transform="matrix(0.05,0,0,0.05,0,0)" xlink:href="#as"/><use transform="matrix(0.05,0,0,0.05,3.95,0)" xlink:href="#ax"/><use transform="matrix(0.05,0,0,0.05,13.949999999999998,0)" xlink:href="#ae"/><use transform="matrix(0.05,0,0,0.05,18.95,0)" xlink:href="#ac"/><use transform="matrix(0.05,0,0,0.05,28.950000000000003,0)" xlink:href="#av"/><use transform="matrix(0.05,0,0,0.05,38.95,0)" xlink:href="#ao"/><use transform="matrix(0.05,0,0,0.05,42.900000000000006,0)" xlink:href="#ak"/><use transform="matrix(0.05,0,0,0.05,52.900000000000006,0)" xlink:href="#ai"/></g><filter id="n" filterUnits="objectBoundingBox" x="-.06" y="-.03" width="1.13" height="1.13"><feOffset result="offOut" in="SourceAlpha" dy="6"/><feGaussianBlur result="blurOut" in="offOut" stdDeviation="5"/><feColorMatrix result="colorOut" in="blurOut" values="0 0 0 0 0 0 0 0 0 0 0 0 0 0 0 0 0 0 0.5019607843137255 0"/><feBlend in="SourceGraphic" in2="colorOut"/></filter><path d="M30-248c118-7 216 8 213 122C240-48 200 0 122 0H30v-248zM63-27c89 8 146-16 146-99s-60-101-146-95v194" id="az"/><path d="M205 0l-28-72H64L36 0H1l101-248h38L239 0h-34zm-38-99l-47-123c-12 45-31 82-46 123h93" id="aA"/><path d="M127-220V0H93v-220H8v-28h204v28h-85" id="aB"/><g id="q"><use transform="matrix(0.05,0,0,0.05,0,0)" xlink:href="#az"/><use transform="matrix(0.05,0,0,0.05,12.950000000000001,0)" xlink:href="#af"/><use transform="matrix(0.05,0,0,0.05,25.900000000000002,0)" xlink:href="#aA"/><use transform="matrix(0.05,0,0,0.05,36.55,0)" xlink:href="#aB"/></g><filter id="p" filterUnits="objectBoundingBox" x="-.08" y="-.08" width="1.17" height="1.38"><feOffset result="offOut" in="SourceAlpha" dy="6"/><feGaussianBlur result="blurOut" in="offOut" stdDeviation="5"/><feColorMatrix result="colorOut" in="blurOut" values="0 0 0 0 0 0 0 0 0 0 0 0 0 0 0 0 0 0 0.5019607843137255 0"/><feBlend in="SourceGraphic" in2="colorOut"/></filter><g id="r"><use transform="matrix(0.05,0,0,0.05,0,0)" xlink:href="#aa"/><use transform="matrix(0.05,0,0,0.05,12,0)" xlink:href="#af"/><use transform="matrix(0.05,0,0,0.05,24.950000000000003,0)" xlink:href="#aA"/><use transform="matrix(0.05,0,0,0.05,35.6,0)" xlink:href="#aB"/></g><path d="M30-248c87 1 191-15 191 75 0 78-77 80-158 76V0H30v-248zm33 125c57 0 124 11 124-50 0-59-68-47-124-48v98" id="aC"/><g id="s"><use transform="matrix(0.05,0,0,0.05,0,0)" xlink:href="#aC"/><use transform="matrix(0.05,0,0,0.05,12,0)" xlink:href="#at"/><use transform="matrix(0.05,0,0,0.05,22,0)" xlink:href="#al"/></g><path d="M27 0v-27h64v-190l-56 39v-29l58-41h29v221h61V0H27" id="aD"/><use transform="matrix(0.05,0,0,0.05,0,0)" xlink:href="#aD" id="t"/><path d="M101-251c82-7 93 87 43 132L82-64C71-53 59-42 53-27h129V0H18c2-99 128-94 128-182 0-28-16-43-45-43s-46 15-49 41l-32-3c6-41 34-60 81-64" id="aE"/><use transform="matrix(0.05,0,0,0.05,0,0)" xlink:href="#aE" id="u"/><path d="M108 0H70L1-190h34L89-25l56-165h34" id="aF"/><g id="v"><use transform="matrix(0.05,0,0,0.05,0,0)" xlink:href="#aa"/><use transform="matrix(0.05,0,0,0.05,12,0)" xlink:href="#ak"/><use transform="matrix(0.05,0,0,0.05,22,0)" xlink:href="#ad"/><use transform="matrix(0.05,0,0,0.05,27.950000000000003,0)" xlink:href="#aF"/><use transform="matrix(0.05,0,0,0.05,36.95,0)" xlink:href="#as"/><use transform="matrix(0.05,0,0,0.05,40.900000000000006,0)" xlink:href="#aj"/><use transform="matrix(0.05,0,0,0.05,49.900000000000006,0)" xlink:href="#ak"/></g><g id="w"><use transform="matrix(0.05,0,0,0.05,0,0)" xlink:href="#ak"/><use transform="matrix(0.05,0,0,0.05,10,0)" xlink:href="#ay"/><use transform="matrix(0.05,0,0,0.05,19,0)" xlink:href="#ae"/><use transform="matrix(0.05,0,0,0.05,24,0)" xlink:href="#ak"/><use transform="matrix(0.05,0,0,0.05,34,0)" xlink:href="#ad"/><use transform="matrix(0.05,0,0,0.05,39.95,0)" xlink:href="#ah"/><use transform="matrix(0.05,0,0,0.05,49.95,0)" xlink:href="#ac"/><use transform="matrix(0.05,0,0,0.05,59.95,0)" xlink:href="#ao"/></g><g id="x"><use transform="matrix(0.05,0,0,0.05,0,0)" xlink:href="#as"/><use transform="matrix(0.05,0,0,0.05,3.95,0)" xlink:href="#am"/><use transform="matrix(0.05,0,0,0.05,8.95,0)" xlink:href="#ac"/><use transform="matrix(0.05,0,0,0.05,18.95,0)" xlink:href="#aj"/><use transform="matrix(0.05,0,0,0.05,27.950000000000003,0)" xlink:href="#ak"/></g><path d="M-5 72V49h209v23H-5" id="aG"/><g id="z"><use transform="matrix(0.05,0,0,0.05,0,0)" xlink:href="#ag"/><use transform="matrix(0.05,0,0,0.05,5,0)" xlink:href="#aC"/><use transform="matrix(0.05,0,0,0.05,17,0)" xlink:href="#aG"/><use transform="matrix(0.05,0,0,0.05,27,0)" xlink:href="#aE"/><use transform="matrix(0.05,0,0,0.05,37,0)" xlink:href="#aG"/><use transform="matrix(0.05,0,0,0.05,47,0)" xlink:href="#aD"/></g><filter id="y" filterUnits="objectBoundingBox" x="-.13" y="-.15" width="1.26" height="1.75"><feOffset result="offOut" in="SourceAlpha" dy="6"/><feGaussianBlur result="blurOut" in="offOut" stdDeviation="5"/><feColorMatrix result="colorOut" in="blurOut" values="0 0 0 0 0 0 0 0 0 0 0 0 0 0 0 0 0 0 0.5019607843137255 0"/><feBlend in="SourceGraphic" in2="colorOut"/></filter><g id="A"><use transform="matrix(0.05,0,0,0.05,0,0)" xlink:href="#ag"/><use transform="matrix(0.05,0,0,0.05,5,0)" xlink:href="#aC"/><use transform="matrix(0.05,0,0,0.05,17,0)" xlink:href="#aG"/><use transform="matrix(0.05,0,0,0.05,27,0)" xlink:href="#aE"/><use transform="matrix(0.05,0,0,0.05,37,0)" xlink:href="#aG"/><use transform="matrix(0.05,0,0,0.05,47,0)" xlink:href="#aE"/></g><g id="B"><use transform="matrix(0.05,0,0,0.05,0,0)" xlink:href="#ag"/><use transform="matrix(0.05,0,0,0.05,5,0)" xlink:href="#aC"/><use transform="matrix(0.05,0,0,0.05,17,0)" xlink:href="#aG"/><use transform="matrix(0.05,0,0,0.05,27,0)" xlink:href="#aE"/><use transform="matrix(0.05,0,0,0.05,37,0)" xlink:href="#aG"/><use transform="matrix(0.05,0,0,0.05,47,0)" xlink:href="#af"/></g><g id="C"><use transform="matrix(0.05,0,0,0.05,0,0)" xlink:href="#ac"/><use transform="matrix(0.05,0,0,0.05,10,0)" xlink:href="#ax"/><use transform="matrix(0.05,0,0,0.05,20,0)" xlink:href="#as"/><use transform="matrix(0.05,0,0,0.05,23.95,0)" xlink:href="#ai"/><use transform="matrix(0.05,0,0,0.05,32.95,0)" xlink:href="#ak"/><use transform="matrix(0.05,0,0,0.05,42.95,0)" xlink:href="#ad"/><use transform="matrix(0.05,0,0,0.05,48.900000000000006,0)" xlink:href="#aF"/><use transform="matrix(0.05,0,0,0.05,57.900000000000006,0)" xlink:href="#ak"/><use transform="matrix(0.05,0,0,0.05,67.9,0)" xlink:href="#ad"/></g><path d="M194 0L95-120 63-95V0H30v-248h33v124l119-124h40L117-140 236 0h-42" id="aH"/><g id="D"><use transform="matrix(0.06172839506172839,0,0,0.06172839506172839,0,0)" xlink:href="#aH"/><use transform="matrix(0.06172839506172839,0,0,0.06172839506172839,14.814814814814813,0)" xlink:href="#an"/><use transform="matrix(0.06172839506172839,0,0,0.06172839506172839,27.160493827160494,0)" xlink:href="#av"/><use transform="matrix(0.06172839506172839,0,0,0.06172839506172839,39.50617283950617,0)" xlink:href="#ak"/><use transform="matrix(0.06172839506172839,0,0,0.06172839506172839,51.85185185185185,0)" xlink:href="#ad"/><use transform="matrix(0.06172839506172839,0,0,0.06172839506172839,59.197530864197525,0)" xlink:href="#ah"/><use transform="matrix(0.06172839506172839,0,0,0.06172839506172839,71.5432098765432,0)" xlink:href="#ak"/><use transform="matrix(0.06172839506172839,0,0,0.06172839506172839,83.88888888888889,0)" xlink:href="#ae"/><use transform="matrix(0.06172839506172839,0,0,0.06172839506172839,90.06172839506172,0)" xlink:href="#ak"/><use transform="matrix(0.06172839506172839,0,0,0.06172839506172839,102.4074074074074,0)" xlink:href="#ai"/></g><path d="M212-179c-10-28-35-45-73-45-59 0-87 40-87 99 0 60 29 101 89 101 43 0 62-24 78-52l27 14C228-24 195 4 139 4 59 4 22-46 18-125c-6-104 99-153 187-111 19 9 31 26 39 46" id="aI"/><g id="E"><use transform="matrix(0.06172839506172839,0,0,0.06172839506172839,0,0)" xlink:href="#aI"/><use transform="matrix(0.06172839506172839,0,0,0.06172839506172839,15.987654320987653,0)" xlink:href="#ao"/><use transform="matrix(0.06172839506172839,0,0,0.06172839506172839,20.864197530864196,0)" xlink:href="#an"/><use transform="matrix(0.06172839506172839,0,0,0.06172839506172839,33.20987654320987,0)" xlink:href="#ai"/><use transform="matrix(0.06172839506172839,0,0,0.06172839506172839,44.32098765432099,0)" xlink:href="#ae"/><use transform="matrix(0.06172839506172839,0,0,0.06172839506172839,50.49382716049383,0)" xlink:href="#ak"/><use transform="matrix(0.06172839506172839,0,0,0.06172839506172839,62.839506172839506,0)" xlink:href="#ad"/></g><path d="M266 0h-40l-56-210L115 0H75L2-248h35L96-30l15-64 43-154h32l59 218 59-218h35" id="aJ"/><g id="F"><use transform="matrix(0.06172839506172839,0,0,0.06172839506172839,0,0)" xlink:href="#aJ"/><use transform="matrix(0.06172839506172839,0,0,0.06172839506172839,20.493827160493826,0)" xlink:href="#at"/><use transform="matrix(0.06172839506172839,0,0,0.06172839506172839,32.839506172839506,0)" xlink:href="#ad"/><use transform="matrix(0.06172839506172839,0,0,0.06172839506172839,40.18518518518518,0)" xlink:href="#ao"/><use transform="matrix(0.06172839506172839,0,0,0.06172839506172839,45.06172839506173,0)" xlink:href="#al"/></g><g id="G"><use transform="matrix(0.05,0,0,0.05,0,0)" xlink:href="#ag"/><use transform="matrix(0.05,0,0,0.05,5,0)" xlink:href="#aC"/><use transform="matrix(0.05,0,0,0.05,17,0)" xlink:href="#aG"/><use transform="matrix(0.05,0,0,0.05,27,0)" xlink:href="#aD"/><use transform="matrix(0.05,0,0,0.05,37,0)" xlink:href="#aG"/><use transform="matrix(0.05,0,0,0.05,47,0)" xlink:href="#aD"/></g><g id="H"><use transform="matrix(0.05,0,0,0.05,0,0)" xlink:href="#ag"/><use transform="matrix(0.05,0,0,0.05,5,0)" xlink:href="#aC"/><use transform="matrix(0.05,0,0,0.05,17,0)" xlink:href="#aG"/><use transform="matrix(0.05,0,0,0.05,27,0)" xlink:href="#aD"/><use transform="matrix(0.05,0,0,0.05,37,0)" xlink:href="#aG"/><use transform="matrix(0.05,0,0,0.05,47,0)" xlink:href="#aE"/></g><g id="I"><use transform="matrix(0.05,0,0,0.05,0,0)" xlink:href="#ag"/><use transform="matrix(0.05,0,0,0.05,5,0)" xlink:href="#aC"/><use transform="matrix(0.05,0,0,0.05,17,0)" xlink:href="#aG"/><use transform="matrix(0.05,0,0,0.05,27,0)" xlink:href="#aD"/><use transform="matrix(0.05,0,0,0.05,37,0)" xlink:href="#aG"/><use transform="matrix(0.05,0,0,0.05,47,0)" xlink:href="#af"/></g><path d="M30 0v-248h33v221h125V0H30" id="aK"/><g id="J"><use transform="matrix(0.05,0,0,0.05,0,0)" xlink:href="#aK"/><use transform="matrix(0.05,0,0,0.05,10,0)" xlink:href="#ak"/><use transform="matrix(0.05,0,0,0.05,20,0)" xlink:href="#ap"/><use transform="matrix(0.05,0,0,0.05,30,0)" xlink:href="#ak"/><use transform="matrix(0.05,0,0,0.05,40,0)" xlink:href="#ah"/><use transform="matrix(0.05,0,0,0.05,50,0)" xlink:href="#al"/></g><g id="K"><use transform="matrix(0.05,0,0,0.05,0,0)" xlink:href="#ak"/><use transform="matrix(0.05,0,0,0.05,10,0)" xlink:href="#ay"/><use transform="matrix(0.05,0,0,0.05,19,0)" xlink:href="#ae"/></g><use transform="matrix(0.05,0,0,0.05,0,0)" xlink:href="#aD" id="L"/><g id="M"><use transform="matrix(0.05,0,0,0.05,0,0)" xlink:href="#ad"/><use transform="matrix(0.05,0,0,0.05,5.95,0)" xlink:href="#at"/><use transform="matrix(0.05,0,0,0.05,15.949999999999998,0)" xlink:href="#an"/><use transform="matrix(0.05,0,0,0.05,25.950000000000003,0)" xlink:href="#ae"/><use transform="matrix(0.05,0,0,0.05,30.950000000000003,0)" xlink:href="#as"/><use transform="matrix(0.05,0,0,0.05,34.9,0)" xlink:href="#ah"/><use transform="matrix(0.05,0,0,0.05,44.9,0)" xlink:href="#ap"/></g><g id="N"><use transform="matrix(0.05,0,0,0.05,0,0)" xlink:href="#ae"/><use transform="matrix(0.05,0,0,0.05,5,0)" xlink:href="#ac"/><use transform="matrix(0.05,0,0,0.05,15,0)" xlink:href="#av"/><use transform="matrix(0.05,0,0,0.05,25,0)" xlink:href="#ao"/><use transform="matrix(0.05,0,0,0.05,28.950000000000003,0)" xlink:href="#ak"/></g><g id="O"><use transform="matrix(0.05,0,0,0.05,0,0)" xlink:href="#ab"/><use transform="matrix(0.05,0,0,0.05,14.950000000000001,0)" xlink:href="#ac"/><use transform="matrix(0.05,0,0,0.05,24.950000000000003,0)" xlink:href="#as"/><use transform="matrix(0.05,0,0,0.05,28.900000000000002,0)" xlink:href="#ah"/></g><g id="P"><use transform="matrix(0.05,0,0,0.05,0,0)" xlink:href="#ad"/><use transform="matrix(0.05,0,0,0.05,5.95,0)" xlink:href="#at"/><use transform="matrix(0.05,0,0,0.05,15.949999999999998,0)" xlink:href="#an"/><use transform="matrix(0.05,0,0,0.05,25.950000000000003,0)" xlink:href="#ae"/><use transform="matrix(0.05,0,0,0.05,30.950000000000003,0)" xlink:href="#as"/><use transform="matrix(0.05,0,0,0.05,34.9,0)" xlink:href="#ah"/><use transform="matrix(0.05,0,0,0.05,44.9,0)" xlink:href="#ap"/></g><use transform="matrix(0.05,0,0,0.05,0,0)" xlink:href="#aE" id="Q"/><g id="S"><use transform="matrix(0.05,0,0,0.05,0,0)" xlink:href="#ad"/><use transform="matrix(0.05,0,0,0.05,5.95,0)" xlink:href="#at"/><use transform="matrix(0.05,0,0,0.05,15.949999999999998,0)" xlink:href="#an"/><use transform="matrix(0.05,0,0,0.05,25.950000000000003,0)" xlink:href="#ae"/><use transform="matrix(0.05,0,0,0.05,30.950000000000003,0)" xlink:href="#as"/><use transform="matrix(0.05,0,0,0.05,34.9,0)" xlink:href="#ah"/><use transform="matrix(0.05,0,0,0.05,44.9,0)" xlink:href="#ap"/></g><g id="T"><use transform="matrix(0.05,0,0,0.05,0,0)" xlink:href="#ad"/><use transform="matrix(0.05,0,0,0.05,5.95,0)" xlink:href="#an"/><use transform="matrix(0.05,0,0,0.05,15.949999999999998,0)" xlink:href="#ao"/><use transform="matrix(0.05,0,0,0.05,19.9,0)" xlink:href="#ak"/><use transform="matrix(0.05,0,0,0.05,29.899999999999995,0)" xlink:href="#ai"/></g><filter id="R" filterUnits="objectBoundingBox" x="-.25" y="-.03" width="1.5" height="1.13"><feOffset result="offOut" in="SourceAlpha" dy="6"/><feGaussianBlur result="blurOut" in="offOut" stdDeviation="5"/><feColorMatrix result="colorOut" in="blurOut" values="0 0 0 0 0 0 0 0 0 0 0 0 0 0 0 0 0 0 0.5019607843137255 0"/><feBlend in="SourceGraphic" in2="colorOut"/></filter><g id="U"><use transform="matrix(0.05,0,0,0.05,0,0)" xlink:href="#aI"/><use transform="matrix(0.05,0,0,0.05,12.950000000000001,0)" xlink:href="#at"/><use transform="matrix(0.05,0,0,0.05,22.950000000000003,0)" xlink:href="#ah"/><use transform="matrix(0.05,0,0,0.05,32.95,0)" xlink:href="#ae"/><use transform="matrix(0.05,0,0,0.05,37.95,0)" xlink:href="#ad"/><use transform="matrix(0.05,0,0,0.05,43.900000000000006,0)" xlink:href="#at"/><use transform="matrix(0.05,0,0,0.05,53.900000000000006,0)" xlink:href="#ao"/></g><g id="V"><use transform="matrix(0.05,0,0,0.05,0,0)" xlink:href="#am"/><use transform="matrix(0.05,0,0,0.05,5,0)" xlink:href="#ao"/><use transform="matrix(0.05,0,0,0.05,8.95,0)" xlink:href="#at"/><use transform="matrix(0.05,0,0,0.05,18.95,0)" xlink:href="#aq"/></g><g id="W"><use transform="matrix(0.05,0,0,0.05,0,0)" xlink:href="#az"/><use transform="matrix(0.05,0,0,0.05,12.950000000000001,0)" xlink:href="#ac"/><use transform="matrix(0.05,0,0,0.05,22.950000000000003,0)" xlink:href="#ae"/><use transform="matrix(0.05,0,0,0.05,27.950000000000003,0)" xlink:href="#ac"/></g><g id="X"><use transform="matrix(0.05,0,0,0.05,0,0)" xlink:href="#am"/><use transform="matrix(0.05,0,0,0.05,5,0)" xlink:href="#ao"/><use transform="matrix(0.05,0,0,0.05,8.95,0)" xlink:href="#at"/><use transform="matrix(0.05,0,0,0.05,18.95,0)" xlink:href="#aq"/></g><path d="M87 75C49 33 22-17 22-94c0-76 28-126 65-167h31c-38 41-64 92-64 168S80 34 118 75H87" id="aL"/><path d="M33-261c38 41 65 92 65 168S71 34 33 75H2C39 34 66-17 66-93S39-220 2-261h31" id="aM"/><g id="Y"><use transform="matrix(0.05,0,0,0.05,0,0)" xlink:href="#aL"/><use transform="matrix(0.05,0,0,0.05,5.95,0)" xlink:href="#as"/><use transform="matrix(0.05,0,0,0.05,9.9,0)" xlink:href="#ah"/><use transform="matrix(0.05,0,0,0.05,19.9,0)" xlink:href="#aM"/></g><g id="Z"><use transform="matrix(0.05,0,0,0.05,0,0)" xlink:href="#aL"/><use transform="matrix(0.05,0,0,0.05,5.95,0)" xlink:href="#at"/><use transform="matrix(0.05,0,0,0.05,15.949999999999998,0)" xlink:href="#an"/><use transform="matrix(0.05,0,0,0.05,25.950000000000003,0)" xlink:href="#ae"/><use transform="matrix(0.05,0,0,0.05,30.950000000000003,0)" xlink:href="#aM"/></g></defs></g></svg>