<svg xmlns="http://www.w3.org/2000/svg" xmlns:xlink="http://www.w3.org/1999/xlink" xmlns:lucid="lucid" width="1420" height="600"><g transform="translate(20 20)" lucid:page-tab-id="ZNI6LXBH924d"><path d="M29.7 218.6c-16.4 0-29.7-16.12-29.7-36 0-15.9 8.04-29.32 20.52-34.24C19.8 101.6 69.3 92.6 89.1 110.6c9.9-27 59.4-18 59.4 9 29.7-9 59.4 27 39.6 72 19.8 36 0 81-39.6 63-9.9 23.4-49.5 23.4-59.4 0-19.8 18-59.4 9-59.4-36z" stroke="#000" stroke-width="2" fill="#fff"/><use xlink:href="#a" transform="matrix(1,0,0,1,5,97.60000000000002) translate(63.525 88.60000000000001)"/><path d="M1180 0h200v560h-200z" stroke="#000" stroke-width="2" fill="#fff"/><use xlink:href="#b" transform="matrix(1,0,0,1,1185,5) translate(48.574999999999996 14.4)"/><use xlink:href="#c" transform="matrix(1,0,0,1,1185,5) translate(84.57499999999999 14.4)"/><path d="M1230.4 180h100v60h-100z" stroke="#000" stroke-width="2" fill="#c7e8ac"/><use xlink:href="#d" transform="matrix(1,0,0,1,1235.3999999999999,185) translate(15.049999999999997 28.6)"/><path d="M1104 210h106.9" stroke="#000" stroke-width="2" fill="none"/><path d="M1088.74 210l14.26-4.64v9.28zM1226.16 210l-14.26 4.64v-9.28z" stroke="#000" stroke-width="2"/><path d="M305 210h-90.7" stroke="#000" stroke-width="2" fill="none"/><path d="M320.26 210L306 214.64v-9.28zM199.04 210l14.26-4.64v9.28z" stroke="#000" stroke-width="2"/><path d="M0 300h273v260H0z" stroke="#000" stroke-width="2" fill="#fff"/><use xlink:href="#e" transform="matrix(1,0,0,1,5,305) translate(99.6 14.4)"/><path d="M154 360h58.5M154.03 360H153" stroke="#000" stroke-width="2" fill="none"/><path d="M227.76 360l-14.26 4.64v-9.28z" stroke="#000" stroke-width="2"/><use xlink:href="#f" transform="matrix(1,0,0,1,137.6249959085726,334.39999999999986) translate(0 14.4)"/><use xlink:href="#g" transform="matrix(1,0,0,1,137.6249959085726,334.39999999999986) translate(42.95 14.4)"/><use xlink:href="#h" transform="matrix(1,0,0,1,137.6249959085726,334.39999999999986) translate(76.85 14.4)"/><path d="M21 360h58.5" fill="none"/><path d="M22 360c0 .55-.45 1-1 1s-1-.45-1-1 .45-1 1-1 1 .45 1 1zm8.36 0c0 .55-.45 1-1 1-.56 0-1-.45-1-1s.44-1 1-1c.55 0 1 .45 1 1zm8.35 0c0 .55-.43 1-1 1-.54 0-1-.45-1-1s.46-1 1-1c.57 0 1 .45 1 1zm8.37 0c0 .55-.45 1-1 1s-1-.45-1-1 .45-1 1-1 1 .45 1 1zm8.36 0c0 .55-.45 1-1 1s-1-.45-1-1 .45-1 1-1 1 .45 1 1zm8.35 0c0 .55-.44 1-1 1-.55 0-1-.45-1-1s.45-1 1-1c.56 0 1 .45 1 1zm8.36 0c0 .55-.45 1-1 1s-1-.45-1-1 .45-1 1-1 1 .45 1 1zm8.36 0c0 .55-.45 1-1 1s-1-.45-1-1 .45-1 1-1 1 .45 1 1z"/><path d="M21.03 360H20" stroke="#000" stroke-width="2" fill="none"/><path d="M94.76 360l-14.26 4.64v-9.28z" stroke="#000" stroke-width="2"/><use xlink:href="#i" transform="matrix(1,0,0,1,11.6249959085726,334.39999999999986) translate(0 14.4)"/><use xlink:href="#h" transform="matrix(1,0,0,1,11.6249959085726,334.39999999999986) translate(62.85000000000001 14.4)"/><path d="M20 400h100v60H20z" stroke="#000" stroke-width="2" fill="#ffeca9"/><use xlink:href="#j" transform="matrix(1,0,0,1,25,404.9999999999999) translate(7.074999999999996 17.799999999999997)"/><use xlink:href="#k" transform="matrix(1,0,0,1,25,404.9999999999999) translate(-3.9750000000000014 39.4)"/><path d="M143 400h100v60H143z" stroke="#000" stroke-width="2" fill="#c7e8ac"/><use xlink:href="#l" transform="matrix(1,0,0,1,148,404.9999999999999) translate(29.5 17.799999999999997)"/><use xlink:href="#m" transform="matrix(1,0,0,1,148,404.9999999999999) translate(-3.9750000000000014 39.4)"/><path d="M20 480h100v60H20z" stroke="#000" stroke-width="2" fill="#c1e4f7"/><use xlink:href="#n" transform="matrix(1,0,0,1,25,484.9999999999999) translate(26.525 17.799999999999997)"/><use xlink:href="#m" transform="matrix(1,0,0,1,25,484.9999999999999) translate(-3.9750000000000014 39.4)"/><path d="M404.5 0h600v560h-600z" stroke="#000" stroke-width="2" fill="#fff"/><use xlink:href="#o" transform="matrix(1,0,0,1,409.5,5) translate(220.575 14.4)"/><use xlink:href="#p" transform="matrix(1,0,0,1,409.5,5) translate(301.425 14.4)"/><path d="M540.67 130h320v160h-320z" fill="#fff"/><path d="M583.33 130H626m21.33 0H690m21.33 0H754m21.33 0H818m21.33 0h21.34v17.78m0 17.78v35.55m0 17.8v35.54m0 17.78V290h-21.34M818 290h-42.67M754 290h-42.67M690 290h-42.67M626 290h-42.67M562 290h-21.33v-17.78m0-17.78V218.9m0-17.8v-35.54m0-17.78V130H562" stroke="#000" stroke-width="2" fill="none"/><use xlink:href="#q" transform="matrix(1,0,0,1,545.666666666667,135) translate(113.55 14.4)"/><use xlink:href="#r" transform="matrix(1,0,0,1,545.666666666667,135) translate(144.55 14.4)"/><path d="M564.5 180h100v60h-100z" stroke="#000" stroke-width="2" fill="#c1e4f7"/><use xlink:href="#s" transform="matrix(1,0,0,1,569.5,185) translate(14.049999999999997 28.6)"/><path d="M729 180h100v60H729z" stroke="#000" stroke-width="2" fill="#c1e4f7"/><use xlink:href="#t" transform="matrix(1,0,0,1,734,185) translate(17.55 17.799999999999997)"/><use xlink:href="#u" transform="matrix(1,0,0,1,734,185) translate(21.025 39.4)"/><path d="M729 460h100v60H729z" stroke="#000" stroke-width="2" fill="#ffeca9"/><use xlink:href="#v" transform="matrix(1,0,0,1,734,464.9999999999999) translate(7.074999999999996 17.799999999999997)"/><use xlink:href="#w" transform="matrix(1,0,0,1,734,464.9999999999999) translate(8.099999999999994 39.4)"/><path d="M564.5 460h100v60h-100z" stroke="#000" stroke-width="2" fill="#c7e8ac"/><use xlink:href="#x" transform="matrix(1,0,0,1,569.5,464.9999999999999) translate(0.5499999999999972 28.6)"/><path d="M779.7 457.3l.3.7-.3.7-.7.3-.7-.3-.3-.7.3-.7.7-.3zm0-7.95l.3.7-.3.72-.7.3-.7-.3-.3-.7.3-.72.7-.3zm0-7.94l.3.72-.3.7-.7.3-.7-.3-.3-.7.3-.7.7-.3zm0-7.93l.3.7-.3.72-.7.28-.7-.3-.3-.7.3-.7.7-.3zm0-7.94l.3.7-.3.72-.7.3-.7-.3-.3-.7.3-.72.7-.3zm0-7.94l.3.7-.3.7-.7.3-.7-.3-.3-.7.3-.7.7-.3zm0-7.95l.3.7-.3.72-.7.3-.7-.3-.3-.7.3-.72.7-.3zm0-7.94l.3.72-.3.7-.7.3-.7-.3-.3-.7.3-.7.7-.3zm0-7.93l.3.7-.3.72-.7.28-.7-.3-.3-.7.3-.7.7-.3zm0-7.94l.3.7-.3.72-.7.3-.7-.3-.3-.7.3-.72.7-.3zm0-71.46l.3.7-.3.72-.7.28-.7-.3-.3-.7.3-.7.7-.3zm0-7.94l.3.7-.3.72-.7.3-.7-.3-.3-.7.3-.72.7-.3zm0-7.94l.3.7-.3.7-.7.3-.7-.3-.3-.7.3-.7.7-.3zm0-7.95l.3.7-.3.72-.7.3-.7-.3-.3-.7.3-.72.7-.3zm0-7.94l.3.72-.3.7-.7.3-.7-.3-.3-.7.3-.7.7-.3zm0-7.93l.3.7-.3.72-.7.28-.7-.3-.3-.7.3-.7.7-.3zm0-7.94l.3.7-.3.72-.7.3-.7-.3-.3-.7.3-.72.7-.3z"/><path d="M780 459h-2v-1.03h2zM783.64 258.5h-9.28l4.64-14.26z"/><path d="M785 259.5h-12l6-18.5zm-9.26-2h6.52L779 247.47z"/><use xlink:href="#y" transform="matrix(1,0,0,1,700.1,317.59999999999997) translate(0 14.4)"/><use xlink:href="#z" transform="matrix(1,0,0,1,700.1,317.59999999999997) translate(29 14.4)"/><use xlink:href="#A" transform="matrix(1,0,0,1,700.1,317.59999999999997) translate(88.9 14.4)"/><use xlink:href="#B" transform="matrix(1,0,0,1,700.1,317.59999999999997) translate(0 36)"/><use xlink:href="#C" transform="matrix(1,0,0,1,700.1,317.59999999999997) translate(102.85000000000001 36)"/><use xlink:href="#D" transform="matrix(1,0,0,1,700.1,317.59999999999997) translate(124.5 36)"/><use xlink:href="#E" transform="matrix(1,0,0,1,700.1,317.59999999999997) translate(0 57.6)"/><use xlink:href="#F" transform="matrix(1,0,0,1,700.1,317.59999999999997) translate(71.95 57.6)"/><use xlink:href="#G" transform="matrix(1,0,0,1,700.1,317.59999999999997) translate(115.95 57.6)"/><use xlink:href="#H" transform="matrix(1,0,0,1,700.1,317.59999999999997) translate(131.45 57.6)"/><path d="M615.2 457.3l.3.7-.3.7-.7.3-.7-.3-.3-.7.3-.7.7-.3zm0-7.95l.3.7-.3.72-.7.3-.7-.3-.3-.7.3-.72.7-.3zm0-7.94l.3.72-.3.7-.7.3-.7-.3-.3-.7.3-.7.7-.3zm0-7.93l.3.7-.3.72-.7.28-.7-.3-.3-.7.3-.7.7-.3zm0-7.94l.3.7-.3.72-.7.3-.7-.3-.3-.7.3-.72.7-.3zm0-7.94l.3.7-.3.7-.7.3-.7-.3-.3-.7.3-.7.7-.3zm0-7.95l.3.7-.3.72-.7.3-.7-.3-.3-.7.3-.72.7-.3zm0-7.94l.3.72-.3.7-.7.3-.7-.3-.3-.7.3-.7.7-.3zm0-7.93l.3.7-.3.72-.7.28-.7-.3-.3-.7.3-.7.7-.3zm0-7.94l.3.7-.3.72-.7.3-.7-.3-.3-.7.3-.72.7-.3zm0-71.46l.3.7-.3.72-.7.28-.7-.3-.3-.7.3-.7.7-.3zm0-7.94l.3.7-.3.72-.7.3-.7-.3-.3-.7.3-.72.7-.3zm0-7.94l.3.7-.3.7-.7.3-.7-.3-.3-.7.3-.7.7-.3zm0-7.95l.3.7-.3.72-.7.3-.7-.3-.3-.7.3-.72.7-.3zm0-7.94l.3.72-.3.7-.7.3-.7-.3-.3-.7.3-.7.7-.3zm0-7.93l.3.7-.3.72-.7.28-.7-.3-.3-.7.3-.7.7-.3zm0-7.94l.3.7-.3.72-.7.3-.7-.3-.3-.7.3-.72.7-.3z"/><path d="M615.5 459h-2v-1.03h2zM619.14 258.5h-9.28l4.64-14.26z"/><path d="M620.5 259.5h-12l6-18.5zm-9.26-2h6.52l-3.26-10.03z"/><path d="M779.7 457.3l.3.7-.3.7-.7.3-.7-.3-.3-.7.3-.7.7-.3zm0-9l.3.7-.3.7-.7.3-.7-.3-.3-.7.3-.7.7-.3zm0-9l.3.7-.3.7-.7.3-.7-.3-.3-.7.3-.7.7-.3zm-3-7l.3.7-.3.72-.7.3-.72-.3-.3-.7.3-.72.7-.3zm-151.5-3l.3.7-.3.7-.7.3-.7-.3-.3-.7.3-.7.7-.3zm8.03 0l.3.7-.3.7-.7.3-.7-.3-.3-.7.3-.7.7-.3zm8.03 0l.3.7-.3.7-.7.3-.7-.3-.3-.7.3-.7.7-.3zm8.03 0l.28.7-.3.7-.7.3-.7-.3-.3-.7.3-.7.7-.3zm8.02 0l.3.7-.3.7-.7.3-.72-.3-.3-.7.3-.7.7-.3zm8.03 0l.3.7-.3.7-.7.3-.72-.3-.3-.7.3-.7.7-.3zm8.02 0l.3.7-.3.7-.7.3-.7-.3-.3-.7.3-.7.7-.3zm8.03 0l.3.7-.3.7-.7.3-.7-.3-.3-.7.3-.7.7-.3zm8.03 0l.3.7-.3.7-.7.3-.7-.3-.3-.7.3-.7.7-.3zm8.03 0l.3.7-.3.7-.7.3-.72-.3-.3-.7.3-.7.7-.3zm8.02 0l.3.7-.3.7-.7.3-.7-.3-.3-.7.3-.7.7-.3zm8.03 0l.3.7-.3.7-.7.3-.7-.3-.3-.7.3-.7.7-.3zm8.04 0l.3.7-.3.7-.7.3-.7-.3-.3-.7.3-.7.7-.3zm8.03 0l.3.7-.3.7-.7.3-.72-.3-.3-.7.3-.7.7-.3zm8.03 0l.3.7-.3.7-.7.3-.72-.3-.3-.7.3-.7.7-.3zm8.02 0l.3.7-.3.7-.7.3-.7-.3-.3-.7.3-.7.7-.3zm8.03 0l.3.7-.3.7-.7.3-.7-.3-.3-.7.3-.7.7-.3zm8.03 0l.3.7-.3.7-.7.3-.7-.3-.3-.7.3-.7.7-.3zm8.03 0l.3.7-.3.7-.7.3-.7-.3-.3-.7.3-.7.7-.3zm-151.48-3.02l.3.7-.3.72-.7.3-.72-.3-.3-.7.3-.72.7-.3zm-3-7l.28.72-.3.7-.7.3-.7-.3-.3-.7.3-.7.7-.3zm0-8l.28.7-.3.7-.7.3-.7-.3-.3-.7.3-.7.7-.3zm0-8.04l.28.7-.3.72-.7.3-.7-.3-.3-.7.3-.72.7-.3zm0-8.02l.28.7-.3.7-.7.3-.7-.3-.3-.7.3-.7.7-.3zm0-8.03l.28.7-.3.7-.7.3-.7-.3-.3-.7.3-.7.7-.3zm0-72.23l.28.7-.3.7-.7.3-.7-.3-.3-.7.3-.7.7-.3zm0-8.03l.28.7-.3.72-.7.3-.7-.3-.3-.7.3-.72.7-.3zm0-8.02l.28.7-.3.7-.7.3-.7-.3-.3-.7.3-.7.7-.3zm0-8.03l.28.7-.3.7-.7.3-.7-.3-.3-.7.3-.7.7-.3zm0-8.03l.28.7-.3.7-.7.3-.7-.3-.3-.7.3-.7.7-.3zm0-8.03l.28.7-.3.72-.7.3-.7-.3-.3-.7.3-.72.7-.3zm0-8.02l.28.7-.3.7-.7.3-.7-.3-.3-.7.3-.7.7-.3zm0-8.03l.28.7-.3.7-.7.3-.7-.3-.3-.7.3-.7.7-.3z"/><path d="M780 459h-2v-1.03h2zM619.14 258.5h-9.28l4.64-14.26z"/><path d="M620.5 259.5h-12l6-18.5zm-9.26-2h6.52l-3.26-10.03z"/><use xlink:href="#y" transform="matrix(1,0,0,1,563.65,317.1447588195657) translate(0 14.4)"/><use xlink:href="#I" transform="matrix(1,0,0,1,563.65,317.1447588195657) translate(29 14.4)"/><use xlink:href="#J" transform="matrix(1,0,0,1,563.65,317.1447588195657) translate(0 36)"/><use xlink:href="#K" transform="matrix(1,0,0,1,563.65,317.1447588195657) translate(62.800000000000004 36)"/><use xlink:href="#L" transform="matrix(1,0,0,1,563.65,317.1447588195657) translate(0 57.6)"/><use xlink:href="#M" transform="matrix(1,0,0,1,563.65,317.1447588195657) translate(35 57.6)"/><path d="M905 210h-24.83" stroke="#000" stroke-width="2" fill="none"/><path d="M920.26 210L906 214.64v-9.28zM864.9 210l14.27-4.64v9.28z" stroke="#000" stroke-width="2"/><path d="M521.16 210H504" stroke="#000" stroke-width="2" fill="none"/><path d="M536.43 210l-14.27 4.64v-9.28zM488.74 210l14.26-4.64v9.28z" stroke="#000" stroke-width="2"/><path d="M924.5 50c0-5.52 4.48-10 10-10h140c5.52 0 10 4.48 10 10v320c0 5.52-4.48 10-10 10h-140c-5.52 0-10-4.48-10-10z" fill="#fff"/><path d="M981.17 40h46.66m23.34 0h23.33l3.16.5 2.75 1.43 2.17 2.16 1.42 2.74.5 3.16v21.33m0 21.34v42.66m0 21.34v42.66m0 21.34v42.66m0 21.34v42.66m0 21.34V370l-.5 3.16-1.43 2.75-2.16 2.17-2.74 1.42-3.16.5h-23.33m-23.34 0h-46.66m-23.34 0H934.5l-3.16-.5-2.75-1.43-2.17-2.16-1.42-2.74-.5-3.16v-21.33m0-21.34v-42.66m0-21.34v-42.66m0-21.34v-42.66m0-21.34V92.67m0-21.34V50l.5-3.16 1.43-2.75 2.16-2.17 2.74-1.42 3.16-.5h23.33" stroke="#000" stroke-width="2" fill="none"/><path d="M944.5 60h120v60h-120z" stroke="#000" stroke-width="2" fill="#c1e4f7"/><g><use xlink:href="#N" transform="matrix(1,0,0,1,949.5,65) translate(8.624999999999993 17.799999999999997)"/><use xlink:href="#O" transform="matrix(1,0,0,1,949.5,65) translate(70.475 17.799999999999997)"/><use xlink:href="#P" transform="matrix(1,0,0,1,949.5,65) translate(45 39.4)"/></g><path d="M944.5 280h120v60h-120z" stroke="#000" stroke-width="2" fill="#c1e4f7"/><g><use xlink:href="#N" transform="matrix(1,0,0,1,949.5,285) translate(8.624999999999993 17.799999999999997)"/><use xlink:href="#O" transform="matrix(1,0,0,1,949.5,285) translate(70.475 17.799999999999997)"/><use xlink:href="#Q" transform="matrix(1,0,0,1,949.5,285) translate(43.525 39.4)"/></g><path d="M985.17 170h38.66v60h-38.66z" fill="none"/><g><use xlink:href="#R" transform="matrix(6.123233995736766e-17,1,-1,6.123233995736766e-17,1023.8333333333335,170) translate(22.5 23.1)"/></g><path d="M324.5 50c0-5.52 4.48-10 10-10h140c5.52 0 10 4.48 10 10v320c0 5.52-4.48 10-10 10h-140c-5.52 0-10-4.48-10-10z" fill="#fff"/><path d="M381.17 40h46.66m23.34 0h23.33l3.16.5 2.75 1.43 2.17 2.16 1.42 2.74.5 3.16v21.33m0 21.34v42.66m0 21.34v42.66m0 21.34v42.66m0 21.34v42.66m0 21.34V370l-.5 3.16-1.43 2.75-2.16 2.17-2.74 1.42-3.16.5h-23.33m-23.34 0h-46.66m-23.34 0H334.5l-3.16-.5-2.75-1.43-2.17-2.16-1.42-2.74-.5-3.16v-21.33m0-21.34v-42.66m0-21.34v-42.66m0-21.34v-42.66m0-21.34V92.67m0-21.34V50l.5-3.16 1.43-2.75 2.16-2.17 2.74-1.42 3.16-.5h23.33" stroke="#000" stroke-width="2" fill="none"/><path d="M391.5 170h38.67v60H391.5z" fill="none"/><g><use xlink:href="#R" transform="matrix(6.123233995736766e-17,1,-1,6.123233995736766e-17,430.16666666666686,170) translate(22.5 23.1)"/></g><path d="M344.5 52.6h120v74.8h-120z" stroke="#000" stroke-width="2" fill="#c1e4f7"/><g><use xlink:href="#S" transform="matrix(1,0,0,1,349.5,57.6) translate(4.099999999999994 25.299999999999997)"/><use xlink:href="#O" transform="matrix(1,0,0,1,349.5,57.6) translate(75 25.299999999999997)"/><use xlink:href="#P" transform="matrix(1,0,0,1,349.5,57.6) translate(45 46.9)"/></g><path d="M344.5 272.6h120v74.8h-120z" stroke="#000" stroke-width="2" fill="#c1e4f7"/><g><use xlink:href="#S" transform="matrix(1,0,0,1,349.5,277.6) translate(4.099999999999994 25.299999999999997)"/><use xlink:href="#T" transform="matrix(1,0,0,1,349.5,277.6) translate(75 25.299999999999997)"/><use xlink:href="#U" transform="matrix(1,0,0,1,349.5,277.6) translate(42.525 46.9)"/></g><defs><path d="M33 0v-248h34V0H33" id="V"/><path d="M117-194c89-4 53 116 60 194h-32v-121c0-31-8-49-39-48C34-167 62-67 57 0H25l-1-190h30c1 10-1 24 2 32 11-22 29-35 61-36" id="W"/><path d="M59-47c-2 24 18 29 38 22v24C64 9 27 4 27-40v-127H5v-23h24l9-43h21v43h35v23H59v120" id="X"/><path d="M100-194c63 0 86 42 84 106H49c0 40 14 67 53 68 26 1 43-12 49-29l28 8c-11 28-37 45-77 45C44 4 14-33 15-96c1-61 26-98 85-98zm52 81c6-60-76-77-97-28-3 7-6 17-6 28h103" id="Y"/><path d="M114-163C36-179 61-72 57 0H25l-1-190h30c1 12-1 29 2 39 6-27 23-49 58-41v29" id="Z"/><g id="a"><use transform="matrix(0.05,0,0,0.05,0,0)" xlink:href="#V"/><use transform="matrix(0.05,0,0,0.05,5,0)" xlink:href="#W"/><use transform="matrix(0.05,0,0,0.05,15,0)" xlink:href="#X"/><use transform="matrix(0.05,0,0,0.05,20,0)" xlink:href="#Y"/><use transform="matrix(0.05,0,0,0.05,30,0)" xlink:href="#Z"/><use transform="matrix(0.05,0,0,0.05,35.95,0)" xlink:href="#W"/><use transform="matrix(0.05,0,0,0.05,45.95,0)" xlink:href="#Y"/><use transform="matrix(0.05,0,0,0.05,55.95,0)" xlink:href="#X"/></g><path d="M194 0L95-120 63-95V0H30v-248h33v124l119-124h40L117-140 236 0h-42" id="aa"/><path d="M134-131c28 9 52 24 51 62-1 50-34 73-85 73S17-19 16-69c0-36 21-54 49-61-75-25-45-126 34-121 46 3 78 18 79 63 0 33-17 51-44 57zm-34-11c31 1 46-15 46-44 0-28-17-43-47-42-29 0-46 13-45 42 1 28 16 44 46 44zm1 122c35 0 51-18 51-52 0-30-18-46-53-46-33 0-51 17-51 47 0 34 19 51 53 51" id="ab"/><path d="M135-143c-3-34-86-38-87 0 15 53 115 12 119 90S17 21 10-45l28-5c4 36 97 45 98 0-10-56-113-15-118-90-4-57 82-63 122-42 12 7 21 19 24 35" id="ac"/><g id="b"><use transform="matrix(0.05,0,0,0.05,0,0)" xlink:href="#aa"/><use transform="matrix(0.05,0,0,0.05,12,0)" xlink:href="#ab"/><use transform="matrix(0.05,0,0,0.05,22,0)" xlink:href="#ac"/></g><path d="M212-179c-10-28-35-45-73-45-59 0-87 40-87 99 0 60 29 101 89 101 43 0 62-24 78-52l27 14C228-24 195 4 139 4 59 4 22-46 18-125c-6-104 99-153 187-111 19 9 31 26 39 46" id="ad"/><path d="M24 0v-261h32V0H24" id="ae"/><path d="M84 4C-5 8 30-112 23-190h32v120c0 31 7 50 39 49 72-2 45-101 50-169h31l1 190h-30c-1-10 1-25-2-33-11 22-28 36-60 37" id="af"/><g id="c"><use transform="matrix(0.05,0,0,0.05,0,0)" xlink:href="#ad"/><use transform="matrix(0.05,0,0,0.05,12.950000000000001,0)" xlink:href="#ae"/><use transform="matrix(0.05,0,0,0.05,16.900000000000002,0)" xlink:href="#af"/><use transform="matrix(0.05,0,0,0.05,26.900000000000002,0)" xlink:href="#ac"/><use transform="matrix(0.05,0,0,0.05,35.900000000000006,0)" xlink:href="#X"/><use transform="matrix(0.05,0,0,0.05,40.900000000000006,0)" xlink:href="#Y"/><use transform="matrix(0.05,0,0,0.05,50.900000000000006,0)" xlink:href="#Z"/></g><path d="M185-189c-5-48-123-54-124 2 14 75 158 14 163 119 3 78-121 87-175 55-17-10-28-26-33-46l33-7c5 56 141 63 141-1 0-78-155-14-162-118-5-82 145-84 179-34 5 7 8 16 11 25" id="ag"/><path d="M108 0H70L1-190h34L89-25l56-165h34" id="ah"/><path d="M24-231v-30h32v30H24zM24 0v-190h32V0H24" id="ai"/><path d="M96-169c-40 0-48 33-48 73s9 75 48 75c24 0 41-14 43-38l32 2c-6 37-31 61-74 61-59 0-76-41-82-99-10-93 101-131 147-64 4 7 5 14 7 22l-32 3c-4-21-16-35-41-35" id="aj"/><g id="d"><use transform="matrix(0.05,0,0,0.05,0,0)" xlink:href="#ag"/><use transform="matrix(0.05,0,0,0.05,12,0)" xlink:href="#Y"/><use transform="matrix(0.05,0,0,0.05,22,0)" xlink:href="#Z"/><use transform="matrix(0.05,0,0,0.05,27.950000000000003,0)" xlink:href="#ah"/><use transform="matrix(0.05,0,0,0.05,36.95,0)" xlink:href="#ai"/><use transform="matrix(0.05,0,0,0.05,40.900000000000006,0)" xlink:href="#aj"/><use transform="matrix(0.05,0,0,0.05,49.900000000000006,0)" xlink:href="#Y"/></g><path d="M24 0v-248h52v208h133V0H24" id="ak"/><path d="M185-48c-13 30-37 53-82 52C43 2 14-33 14-96s30-98 90-98c62 0 83 45 84 108H66c0 31 8 55 39 56 18 0 30-7 34-22zm-45-69c5-46-57-63-70-21-2 6-4 13-4 21h74" id="al"/><path d="M195-6C206 82 75 100 31 46c-4-6-6-13-8-21l49-6c3 16 16 24 34 25 40 0 42-37 40-79-11 22-30 35-61 35-53 0-70-43-70-97 0-56 18-96 73-97 30 0 46 14 59 34l2-30h47zm-90-29c32 0 41-27 41-63 0-35-9-62-40-62-32 0-39 29-40 63 0 36 9 62 39 62" id="am"/><path d="M135-194c87-1 58 113 63 194h-50c-7-57 23-157-34-157-59 0-34 97-39 157H25l-1-190h47c2 12-1 28 3 38 12-26 28-41 61-42" id="an"/><path d="M88-194c31-1 46 15 58 34l-1-101h50l1 261h-48c-2-10 0-23-3-31C134-8 116 4 84 4 32 4 16-41 15-95c0-56 19-97 73-99zm17 164c33 0 40-30 41-66 1-37-9-64-41-64s-38 30-39 65c0 43 13 65 39 65" id="ao"/><g id="e"><use transform="matrix(0.05,0,0,0.05,0,0)" xlink:href="#ak"/><use transform="matrix(0.05,0,0,0.05,10.950000000000001,0)" xlink:href="#al"/><use transform="matrix(0.05,0,0,0.05,20.950000000000003,0)" xlink:href="#am"/><use transform="matrix(0.05,0,0,0.05,31.900000000000006,0)" xlink:href="#al"/><use transform="matrix(0.05,0,0,0.05,41.900000000000006,0)" xlink:href="#an"/><use transform="matrix(0.05,0,0,0.05,52.85,0)" xlink:href="#ao"/></g><path d="M30-248c118-7 216 8 213 122C240-48 200 0 122 0H30v-248zM63-27c89 8 146-16 146-99s-60-101-146-95v194" id="ap"/><path d="M141-36C126-15 110 5 73 4 37 3 15-17 15-53c-1-64 63-63 125-63 3-35-9-54-41-54-24 1-41 7-42 31l-33-3c5-37 33-52 76-52 45 0 72 20 72 64v82c-1 20 7 32 28 27v20c-31 9-61-2-59-35zM48-53c0 20 12 33 32 33 41-3 63-29 60-74-43 2-92-5-92 41" id="aq"/><g id="f"><use transform="matrix(0.05,0,0,0.05,0,0)" xlink:href="#ap"/><use transform="matrix(0.05,0,0,0.05,12.950000000000001,0)" xlink:href="#aq"/><use transform="matrix(0.05,0,0,0.05,22.950000000000003,0)" xlink:href="#X"/><use transform="matrix(0.05,0,0,0.05,27.950000000000003,0)" xlink:href="#aq"/></g><path d="M87 75C49 33 22-17 22-94c0-76 28-126 65-167h31c-38 41-64 92-64 168S80 34 118 75H87" id="ar"/><path d="M30-248c87 1 191-15 191 75 0 78-77 80-158 76V0H30v-248zm33 125c57 0 124 11 124-50 0-59-68-47-124-48v98" id="as"/><path d="M33-261c38 41 65 92 65 168S71 34 33 75H2C39 34 66-17 66-93S39-220 2-261h31" id="at"/><g id="g"><use transform="matrix(0.05,0,0,0.05,0,0)" xlink:href="#ar"/><use transform="matrix(0.05,0,0,0.05,5.95,0)" xlink:href="#V"/><use transform="matrix(0.05,0,0,0.05,10.95,0)" xlink:href="#as"/><use transform="matrix(0.05,0,0,0.05,22.95,0)" xlink:href="#at"/></g><path d="M101-234c-31-9-42 10-38 44h38v23H63V0H32v-167H5v-23h27c-7-52 17-82 69-68v24" id="au"/><path d="M100-194c62-1 85 37 85 99 1 63-27 99-86 99S16-35 15-95c0-66 28-99 85-99zM99-20c44 1 53-31 53-75 0-43-8-75-51-75s-53 32-53 75 10 74 51 75" id="av"/><path d="M206 0h-36l-40-164L89 0H53L-1-190h32L70-26l43-164h34l41 164 42-164h31" id="aw"/><g id="h"><use transform="matrix(0.05,0,0,0.05,0,0)" xlink:href="#au"/><use transform="matrix(0.05,0,0,0.05,5,0)" xlink:href="#ae"/><use transform="matrix(0.05,0,0,0.05,8.95,0)" xlink:href="#av"/><use transform="matrix(0.05,0,0,0.05,18.95,0)" xlink:href="#aw"/></g><g id="i"><use transform="matrix(0.05,0,0,0.05,0,0)" xlink:href="#ad"/><use transform="matrix(0.05,0,0,0.05,12.950000000000001,0)" xlink:href="#av"/><use transform="matrix(0.05,0,0,0.05,22.950000000000003,0)" xlink:href="#W"/><use transform="matrix(0.05,0,0,0.05,32.95,0)" xlink:href="#X"/><use transform="matrix(0.05,0,0,0.05,37.95,0)" xlink:href="#Z"/><use transform="matrix(0.05,0,0,0.05,43.900000000000006,0)" xlink:href="#av"/><use transform="matrix(0.05,0,0,0.05,53.900000000000006,0)" xlink:href="#ae"/></g><path d="M210-169c-67 3-38 105-44 169h-31v-121c0-29-5-50-35-48C34-165 62-65 56 0H25l-1-190h30c1 10-1 24 2 32 10-44 99-50 107 0 11-21 27-35 58-36 85-2 47 119 55 194h-31v-121c0-29-5-49-35-48" id="ax"/><path d="M190 0L58-211 59 0H30v-248h39L202-35l-2-213h31V0h-41" id="ay"/><g id="j"><use transform="matrix(0.05,0,0,0.05,0,0)" xlink:href="#ag"/><use transform="matrix(0.05,0,0,0.05,12,0)" xlink:href="#ax"/><use transform="matrix(0.05,0,0,0.05,26.950000000000003,0)" xlink:href="#aq"/><use transform="matrix(0.05,0,0,0.05,36.95,0)" xlink:href="#Z"/><use transform="matrix(0.05,0,0,0.05,42.900000000000006,0)" xlink:href="#X"/><use transform="matrix(0.05,0,0,0.05,47.900000000000006,0)" xlink:href="#ay"/><use transform="matrix(0.05,0,0,0.05,60.85,0)" xlink:href="#aq"/><use transform="matrix(0.05,0,0,0.05,70.85000000000001,0)" xlink:href="#X"/></g><path d="M115-194c55 1 70 41 70 98S169 2 115 4C84 4 66-9 55-30l1 105H24l-1-265h31l2 30c10-21 28-34 59-34zm-8 174c40 0 45-34 45-75s-6-73-45-74c-42 0-51 32-51 76 0 43 10 73 51 73" id="az"/><g id="k"><use transform="matrix(0.05,0,0,0.05,0,0)" xlink:href="#aj"/><use transform="matrix(0.05,0,0,0.05,9,0)" xlink:href="#av"/><use transform="matrix(0.05,0,0,0.05,19,0)" xlink:href="#ax"/><use transform="matrix(0.05,0,0,0.05,33.95,0)" xlink:href="#az"/><use transform="matrix(0.05,0,0,0.05,43.95,0)" xlink:href="#av"/><use transform="matrix(0.05,0,0,0.05,53.95,0)" xlink:href="#W"/><use transform="matrix(0.05,0,0,0.05,63.95,0)" xlink:href="#Y"/><use transform="matrix(0.05,0,0,0.05,73.95,0)" xlink:href="#W"/><use transform="matrix(0.05,0,0,0.05,83.95,0)" xlink:href="#X"/><use transform="matrix(0.05,0,0,0.05,88.95,0)" xlink:href="#ac"/></g><g id="l"><use transform="matrix(0.05,0,0,0.05,0,0)" xlink:href="#aa"/><use transform="matrix(0.05,0,0,0.05,12,0)" xlink:href="#ab"/><use transform="matrix(0.05,0,0,0.05,22,0)" xlink:href="#ac"/></g><g id="m"><use transform="matrix(0.05,0,0,0.05,0,0)" xlink:href="#aj"/><use transform="matrix(0.05,0,0,0.05,9,0)" xlink:href="#av"/><use transform="matrix(0.05,0,0,0.05,19,0)" xlink:href="#ax"/><use transform="matrix(0.05,0,0,0.05,33.95,0)" xlink:href="#az"/><use transform="matrix(0.05,0,0,0.05,43.95,0)" xlink:href="#av"/><use transform="matrix(0.05,0,0,0.05,53.95,0)" xlink:href="#W"/><use transform="matrix(0.05,0,0,0.05,63.95,0)" xlink:href="#Y"/><use transform="matrix(0.05,0,0,0.05,73.95,0)" xlink:href="#W"/><use transform="matrix(0.05,0,0,0.05,83.95,0)" xlink:href="#X"/><use transform="matrix(0.05,0,0,0.05,88.95,0)" xlink:href="#ac"/></g><path d="M197 0v-115H63V0H30v-248h33v105h134v-105h34V0h-34" id="aA"/><g id="n"><use transform="matrix(0.05,0,0,0.05,0,0)" xlink:href="#aA"/><use transform="matrix(0.05,0,0,0.05,12.950000000000001,0)" xlink:href="#av"/><use transform="matrix(0.05,0,0,0.05,22.950000000000003,0)" xlink:href="#ac"/><use transform="matrix(0.05,0,0,0.05,31.950000000000003,0)" xlink:href="#X"/></g><g id="o"><use transform="matrix(0.05,0,0,0.05,0,0)" xlink:href="#ag"/><use transform="matrix(0.05,0,0,0.05,12,0)" xlink:href="#ax"/><use transform="matrix(0.05,0,0,0.05,26.950000000000003,0)" xlink:href="#aq"/><use transform="matrix(0.05,0,0,0.05,36.95,0)" xlink:href="#Z"/><use transform="matrix(0.05,0,0,0.05,42.900000000000006,0)" xlink:href="#X"/><use transform="matrix(0.05,0,0,0.05,47.900000000000006,0)" xlink:href="#ay"/><use transform="matrix(0.05,0,0,0.05,60.85,0)" xlink:href="#aq"/><use transform="matrix(0.05,0,0,0.05,70.85000000000001,0)" xlink:href="#X"/></g><g id="p"><use transform="matrix(0.05,0,0,0.05,0,0)" xlink:href="#V"/><use transform="matrix(0.05,0,0,0.05,5,0)" xlink:href="#W"/><use transform="matrix(0.05,0,0,0.05,15,0)" xlink:href="#ac"/><use transform="matrix(0.05,0,0,0.05,24,0)" xlink:href="#X"/><use transform="matrix(0.05,0,0,0.05,29,0)" xlink:href="#aq"/><use transform="matrix(0.05,0,0,0.05,39,0)" xlink:href="#W"/><use transform="matrix(0.05,0,0,0.05,49,0)" xlink:href="#aj"/><use transform="matrix(0.05,0,0,0.05,58,0)" xlink:href="#Y"/></g><path d="M140-251c81 0 123 46 123 126C263-46 219 4 140 4 59 4 17-45 17-125s42-126 123-126zm0 227c63 0 89-41 89-101s-29-99-89-99c-61 0-89 39-89 99S79-25 140-24" id="aB"/><g id="q"><use transform="matrix(0.05,0,0,0.05,0,0)" xlink:href="#aB"/><use transform="matrix(0.05,0,0,0.05,14,0)" xlink:href="#ag"/></g><g id="r"><use transform="matrix(0.05,0,0,0.05,0,0)" xlink:href="#aa"/><use transform="matrix(0.05,0,0,0.05,12,0)" xlink:href="#Y"/><use transform="matrix(0.05,0,0,0.05,22,0)" xlink:href="#Z"/><use transform="matrix(0.05,0,0,0.05,27.950000000000003,0)" xlink:href="#W"/><use transform="matrix(0.05,0,0,0.05,37.95,0)" xlink:href="#Y"/><use transform="matrix(0.05,0,0,0.05,47.95,0)" xlink:href="#ae"/></g><path d="M115-194c53 0 69 39 70 98 0 66-23 100-70 100C84 3 66-7 56-30L54 0H23l1-261h32v101c10-23 28-34 59-34zm-8 174c40 0 45-34 45-75 0-40-5-75-45-74-42 0-51 32-51 76 0 43 10 73 51 73" id="aC"/><g id="s"><use transform="matrix(0.05,0,0,0.05,0,0)" xlink:href="#ai"/><use transform="matrix(0.05,0,0,0.05,3.95,0)" xlink:href="#az"/><use transform="matrix(0.05,0,0,0.05,13.949999999999998,0)" xlink:href="#X"/><use transform="matrix(0.05,0,0,0.05,18.95,0)" xlink:href="#aq"/><use transform="matrix(0.05,0,0,0.05,28.950000000000003,0)" xlink:href="#aC"/><use transform="matrix(0.05,0,0,0.05,38.95,0)" xlink:href="#ae"/><use transform="matrix(0.05,0,0,0.05,42.900000000000006,0)" xlink:href="#Y"/><use transform="matrix(0.05,0,0,0.05,52.900000000000006,0)" xlink:href="#ac"/></g><path d="M177-190C167-65 218 103 67 71c-23-6-38-20-44-43l32-5c15 47 100 32 89-28v-30C133-14 115 1 83 1 29 1 15-40 15-95c0-56 16-97 71-98 29-1 48 16 59 35 1-10 0-23 2-32h30zM94-22c36 0 50-32 50-73 0-42-14-75-50-75-39 0-46 34-46 75s6 73 46 73" id="aD"/><g id="t"><use transform="matrix(0.05,0,0,0.05,0,0)" xlink:href="#Z"/><use transform="matrix(0.05,0,0,0.05,5.95,0)" xlink:href="#av"/><use transform="matrix(0.05,0,0,0.05,15.949999999999998,0)" xlink:href="#af"/><use transform="matrix(0.05,0,0,0.05,25.950000000000003,0)" xlink:href="#X"/><use transform="matrix(0.05,0,0,0.05,30.950000000000003,0)" xlink:href="#ai"/><use transform="matrix(0.05,0,0,0.05,34.9,0)" xlink:href="#W"/><use transform="matrix(0.05,0,0,0.05,44.9,0)" xlink:href="#aD"/></g><g id="u"><use transform="matrix(0.05,0,0,0.05,0,0)" xlink:href="#X"/><use transform="matrix(0.05,0,0,0.05,5,0)" xlink:href="#aq"/><use transform="matrix(0.05,0,0,0.05,15,0)" xlink:href="#aC"/><use transform="matrix(0.05,0,0,0.05,25,0)" xlink:href="#ae"/><use transform="matrix(0.05,0,0,0.05,28.950000000000003,0)" xlink:href="#Y"/><use transform="matrix(0.05,0,0,0.05,38.95,0)" xlink:href="#ac"/></g><g id="v"><use transform="matrix(0.05,0,0,0.05,0,0)" xlink:href="#ag"/><use transform="matrix(0.05,0,0,0.05,12,0)" xlink:href="#ax"/><use transform="matrix(0.05,0,0,0.05,26.950000000000003,0)" xlink:href="#aq"/><use transform="matrix(0.05,0,0,0.05,36.95,0)" xlink:href="#Z"/><use transform="matrix(0.05,0,0,0.05,42.900000000000006,0)" xlink:href="#X"/><use transform="matrix(0.05,0,0,0.05,47.900000000000006,0)" xlink:href="#ay"/><use transform="matrix(0.05,0,0,0.05,60.85,0)" xlink:href="#aq"/><use transform="matrix(0.05,0,0,0.05,70.85000000000001,0)" xlink:href="#X"/></g><g id="w"><use transform="matrix(0.05,0,0,0.05,0,0)" xlink:href="#aj"/><use transform="matrix(0.05,0,0,0.05,9,0)" xlink:href="#av"/><use transform="matrix(0.05,0,0,0.05,19,0)" xlink:href="#W"/><use transform="matrix(0.05,0,0,0.05,29,0)" xlink:href="#X"/><use transform="matrix(0.05,0,0,0.05,34,0)" xlink:href="#Z"/><use transform="matrix(0.05,0,0,0.05,39.95,0)" xlink:href="#av"/><use transform="matrix(0.05,0,0,0.05,49.95,0)" xlink:href="#ae"/><use transform="matrix(0.05,0,0,0.05,53.900000000000006,0)" xlink:href="#ae"/><use transform="matrix(0.05,0,0,0.05,57.85,0)" xlink:href="#Y"/><use transform="matrix(0.05,0,0,0.05,67.85000000000001,0)" xlink:href="#Z"/></g><path d="M143 0L79-87 56-68V0H24v-261h32v163l83-92h37l-77 82L181 0h-38" id="aE"/><path d="M16-82v-28h88v28H16" id="aF"/><path d="M141 0L90-78 38 0H4l68-98-65-92h35l48 74 47-74h35l-64 92 68 98h-35" id="aG"/><path d="M179-190L93 31C79 59 56 82 12 73V49c39 6 53-20 64-50L1-190h34L92-34l54-156h33" id="aH"/><g id="x"><use transform="matrix(0.05,0,0,0.05,0,0)" xlink:href="#aE"/><use transform="matrix(0.05,0,0,0.05,9,0)" xlink:href="#af"/><use transform="matrix(0.05,0,0,0.05,19,0)" xlink:href="#aC"/><use transform="matrix(0.05,0,0,0.05,29,0)" xlink:href="#Y"/><use transform="matrix(0.05,0,0,0.05,39,0)" xlink:href="#aF"/><use transform="matrix(0.05,0,0,0.05,44.95,0)" xlink:href="#az"/><use transform="matrix(0.05,0,0,0.05,54.95,0)" xlink:href="#Z"/><use transform="matrix(0.05,0,0,0.05,60.900000000000006,0)" xlink:href="#av"/><use transform="matrix(0.05,0,0,0.05,70.9,0)" xlink:href="#aG"/><use transform="matrix(0.05,0,0,0.05,79.9,0)" xlink:href="#aH"/></g><g id="y"><use transform="matrix(0.05,0,0,0.05,0,0)" xlink:href="#ac"/><use transform="matrix(0.05,0,0,0.05,9,0)" xlink:href="#Y"/><use transform="matrix(0.05,0,0,0.05,19,0)" xlink:href="#X"/></g><g id="z"><use transform="matrix(0.05,0,0,0.05,0,0)" xlink:href="#Z"/><use transform="matrix(0.05,0,0,0.05,5.95,0)" xlink:href="#av"/><use transform="matrix(0.05,0,0,0.05,15.949999999999998,0)" xlink:href="#af"/><use transform="matrix(0.05,0,0,0.05,25.950000000000003,0)" xlink:href="#X"/><use transform="matrix(0.05,0,0,0.05,30.950000000000003,0)" xlink:href="#ai"/><use transform="matrix(0.05,0,0,0.05,34.9,0)" xlink:href="#W"/><use transform="matrix(0.05,0,0,0.05,44.9,0)" xlink:href="#aD"/></g><g id="A"><use transform="matrix(0.05,0,0,0.05,0,0)" xlink:href="#ax"/><use transform="matrix(0.05,0,0,0.05,14.950000000000001,0)" xlink:href="#aq"/><use transform="matrix(0.05,0,0,0.05,24.950000000000003,0)" xlink:href="#az"/><use transform="matrix(0.05,0,0,0.05,34.95,0)" xlink:href="#az"/><use transform="matrix(0.05,0,0,0.05,44.95,0)" xlink:href="#ai"/><use transform="matrix(0.05,0,0,0.05,48.900000000000006,0)" xlink:href="#W"/><use transform="matrix(0.05,0,0,0.05,58.900000000000006,0)" xlink:href="#aD"/></g><path d="M85-194c31 0 48 13 60 33l-1-100h32l1 261h-30c-2-10 0-23-3-31C134-8 116 4 85 4 32 4 16-35 15-94c0-66 23-100 70-100zm9 24c-40 0-46 34-46 75 0 40 6 74 45 74 42 0 51-32 51-76 0-42-9-74-50-73" id="aI"/><g id="B"><use transform="matrix(0.05,0,0,0.05,0,0)" xlink:href="#ar"/><use transform="matrix(0.05,0,0,0.05,5.95,0)" xlink:href="#aI"/><use transform="matrix(0.05,0,0,0.05,15.949999999999998,0)" xlink:href="#Y"/><use transform="matrix(0.05,0,0,0.05,25.950000000000003,0)" xlink:href="#ac"/><use transform="matrix(0.05,0,0,0.05,34.95,0)" xlink:href="#X"/><use transform="matrix(0.05,0,0,0.05,39.95,0)" xlink:href="#ai"/><use transform="matrix(0.05,0,0,0.05,43.900000000000006,0)" xlink:href="#W"/><use transform="matrix(0.05,0,0,0.05,53.900000000000006,0)" xlink:href="#X"/><use transform="matrix(0.05,0,0,0.05,58.900000000000006,0)" xlink:href="#aq"/><use transform="matrix(0.05,0,0,0.05,68.9,0)" xlink:href="#X"/><use transform="matrix(0.05,0,0,0.05,73.9,0)" xlink:href="#ai"/><use transform="matrix(0.05,0,0,0.05,77.85000000000001,0)" xlink:href="#av"/><use transform="matrix(0.05,0,0,0.05,87.85000000000001,0)" xlink:href="#W"/></g><g id="C"><use transform="matrix(0.05,0,0,0.05,0,0)" xlink:href="#V"/><use transform="matrix(0.05,0,0,0.05,5,0)" xlink:href="#as"/></g><g id="D"><use transform="matrix(0.05,0,0,0.05,0,0)" xlink:href="#X"/><use transform="matrix(0.05,0,0,0.05,5,0)" xlink:href="#av"/></g><g id="E"><use transform="matrix(0.05,0,0,0.05,0,0)" xlink:href="#aD"/><use transform="matrix(0.05,0,0,0.05,10,0)" xlink:href="#aq"/><use transform="matrix(0.05,0,0,0.05,20,0)" xlink:href="#X"/><use transform="matrix(0.05,0,0,0.05,25,0)" xlink:href="#Y"/><use transform="matrix(0.05,0,0,0.05,35,0)" xlink:href="#aw"/><use transform="matrix(0.05,0,0,0.05,47.95,0)" xlink:href="#aq"/><use transform="matrix(0.05,0,0,0.05,57.95,0)" xlink:href="#aH"/></g><g id="F"><use transform="matrix(0.05,0,0,0.05,0,0)" xlink:href="#V"/><use transform="matrix(0.05,0,0,0.05,5,0)" xlink:href="#au"/><use transform="matrix(0.05,0,0,0.05,10,0)" xlink:href="#aq"/><use transform="matrix(0.05,0,0,0.05,20,0)" xlink:href="#aj"/><use transform="matrix(0.05,0,0,0.05,29,0)" xlink:href="#Y"/></g><path d="M118-107v75H92v-75H18v-26h74v-75h26v75h74v26h-74" id="aJ"/><use transform="matrix(0.05,0,0,0.05,0,0)" xlink:href="#aJ" id="G"/><g id="H"><use transform="matrix(0.05,0,0,0.05,0,0)" xlink:href="#V"/><use transform="matrix(0.05,0,0,0.05,5,0)" xlink:href="#as"/><use transform="matrix(0.05,0,0,0.05,17,0)" xlink:href="#at"/></g><path d="M0 4l72-265h28L28 4H0" id="aK"/><g id="I"><use transform="matrix(0.05,0,0,0.05,0,0)" xlink:href="#V"/><use transform="matrix(0.05,0,0,0.05,5,0)" xlink:href="#as"/><use transform="matrix(0.05,0,0,0.05,17,0)" xlink:href="#aK"/><use transform="matrix(0.05,0,0,0.05,22,0)" xlink:href="#az"/><use transform="matrix(0.05,0,0,0.05,32,0)" xlink:href="#av"/><use transform="matrix(0.05,0,0,0.05,42,0)" xlink:href="#Z"/><use transform="matrix(0.05,0,0,0.05,47.95,0)" xlink:href="#X"/></g><g id="J"><use transform="matrix(0.05,0,0,0.05,0,0)" xlink:href="#au"/><use transform="matrix(0.05,0,0,0.05,5,0)" xlink:href="#ai"/><use transform="matrix(0.05,0,0,0.05,8.95,0)" xlink:href="#ae"/><use transform="matrix(0.05,0,0,0.05,12.899999999999999,0)" xlink:href="#X"/><use transform="matrix(0.05,0,0,0.05,17.9,0)" xlink:href="#Y"/><use transform="matrix(0.05,0,0,0.05,27.899999999999995,0)" xlink:href="#Z"/><use transform="matrix(0.05,0,0,0.05,33.85,0)" xlink:href="#ai"/><use transform="matrix(0.05,0,0,0.05,37.800000000000004,0)" xlink:href="#W"/><use transform="matrix(0.05,0,0,0.05,47.800000000000004,0)" xlink:href="#aD"/></g><g id="K"><use transform="matrix(0.05,0,0,0.05,0,0)" xlink:href="#Z"/><use transform="matrix(0.05,0,0,0.05,5.95,0)" xlink:href="#af"/><use transform="matrix(0.05,0,0,0.05,15.949999999999998,0)" xlink:href="#ae"/><use transform="matrix(0.05,0,0,0.05,19.9,0)" xlink:href="#Y"/><use transform="matrix(0.05,0,0,0.05,29.899999999999995,0)" xlink:href="#ac"/></g><g id="L"><use transform="matrix(0.05,0,0,0.05,0,0)" xlink:href="#aq"/><use transform="matrix(0.05,0,0,0.05,10,0)" xlink:href="#W"/><use transform="matrix(0.05,0,0,0.05,20,0)" xlink:href="#aI"/></g><path d="M205 0l-28-72H64L36 0H1l101-248h38L239 0h-34zm-38-99l-47-123c-12 45-31 82-46 123h93" id="aL"/><path d="M127-220V0H93v-220H8v-28h204v28h-85" id="aM"/><g id="M"><use transform="matrix(0.05,0,0,0.05,0,0)" xlink:href="#ay"/><use transform="matrix(0.05,0,0,0.05,12.950000000000001,0)" xlink:href="#aL"/><use transform="matrix(0.05,0,0,0.05,23.6,0)" xlink:href="#aM"/></g><g id="N"><use transform="matrix(0.05,0,0,0.05,0,0)" xlink:href="#ad"/><use transform="matrix(0.05,0,0,0.05,12.950000000000001,0)" xlink:href="#ae"/><use transform="matrix(0.05,0,0,0.05,16.900000000000002,0)" xlink:href="#af"/><use transform="matrix(0.05,0,0,0.05,26.900000000000002,0)" xlink:href="#ac"/><use transform="matrix(0.05,0,0,0.05,35.900000000000006,0)" xlink:href="#X"/><use transform="matrix(0.05,0,0,0.05,40.900000000000006,0)" xlink:href="#Y"/><use transform="matrix(0.05,0,0,0.05,50.900000000000006,0)" xlink:href="#Z"/></g><g id="O"><use transform="matrix(0.05,0,0,0.05,0,0)" xlink:href="#ay"/><use transform="matrix(0.05,0,0,0.05,12.950000000000001,0)" xlink:href="#V"/><use transform="matrix(0.05,0,0,0.05,17.950000000000003,0)" xlink:href="#ad"/></g><path d="M158-156l-14 65h45v19h-49L124 0h-19l15-72H56L41 0H22l15-72H2v-19h39l14-65H11v-19h48l15-71h20l-16 71h64l16-71h19l-16 71h37v19h-40zm-83 0L61-91h63l14-65H75" id="aN"/><path d="M27 0v-27h64v-190l-56 39v-29l58-41h29v221h61V0H27" id="aO"/><g id="P"><use transform="matrix(0.05,0,0,0.05,0,0)" xlink:href="#aN"/><use transform="matrix(0.05,0,0,0.05,10,0)" xlink:href="#aO"/></g><g id="Q"><use transform="matrix(0.05,0,0,0.05,0,0)" xlink:href="#aN"/><use transform="matrix(0.05,0,0,0.05,10,0)" xlink:href="#ay"/></g><path d="M24 0v-54h51V0H24" id="aP"/><g id="R"><use transform="matrix(0.05,0,0,0.05,0,0)" xlink:href="#aP"/><use transform="matrix(0.05,0,0,0.05,5,0)" xlink:href="#aP"/><use transform="matrix(0.05,0,0,0.05,10,0)" xlink:href="#aP"/></g><path d="M30 0v-248h187v28H63v79h144v27H63v87h162V0H30" id="aQ"/><g id="S"><use transform="matrix(0.05,0,0,0.05,0,0)" xlink:href="#aQ"/><use transform="matrix(0.05,0,0,0.05,12,0)" xlink:href="#aG"/><use transform="matrix(0.05,0,0,0.05,21,0)" xlink:href="#X"/><use transform="matrix(0.05,0,0,0.05,26,0)" xlink:href="#Y"/><use transform="matrix(0.05,0,0,0.05,36,0)" xlink:href="#Z"/><use transform="matrix(0.05,0,0,0.05,41.95,0)" xlink:href="#W"/><use transform="matrix(0.05,0,0,0.05,51.95,0)" xlink:href="#aq"/><use transform="matrix(0.05,0,0,0.05,61.95,0)" xlink:href="#ae"/></g><g id="T"><use transform="matrix(0.05,0,0,0.05,0,0)" xlink:href="#ay"/><use transform="matrix(0.05,0,0,0.05,12.950000000000001,0)" xlink:href="#V"/><use transform="matrix(0.05,0,0,0.05,17.950000000000003,0)" xlink:href="#ad"/></g><path d="M240 0l2-218c-23 76-54 145-80 218h-23L58-218 59 0H30v-248h44l77 211c21-75 51-140 76-211h43V0h-30" id="aR"/><g id="U"><use transform="matrix(0.05,0,0,0.05,0,0)" xlink:href="#aN"/><use transform="matrix(0.05,0,0,0.05,10,0)" xlink:href="#aR"/></g></defs></g></svg>