<svg xmlns="http://www.w3.org/2000/svg" xmlns:xlink="http://www.w3.org/1999/xlink" xmlns:lucid="lucid" width="1040" height="580"><g transform="translate(1800 140)" lucid:page-tab-id="15I36ihCnMxs"><path d="M-1744.3 279c-19.72 0-35.7-24.18-35.7-54 0-23.86 9.67-43.98 24.67-51.36-.87-70.14 58.63-83.64 82.43-56.64 11.9-40.5 71.4-27 71.4 13.5 35.7-13.5 71.4 40.5 47.6 108 23.8 54 0 121.5-47.6 94.5-11.9 35.1-59.5 35.1-71.4 0-23.8 27-71.4 13.5-71.4-54z" stroke="#000" stroke-width="2" fill="#fff"/><use xlink:href="#a" transform="matrix(1,0,0,1,-1775,95.00000000000006) translate(83.525 133.6)"/><path d="M-1399.5 120.13h-201.36" stroke="#000" stroke-width="2" fill="none"/><path d="M-1384.24 120.13l-14.26 4.64v-9.27z" stroke="#000" stroke-width="2"/><path d="M-1600.84 121.13h-.78l-.22-.93-.33-1.07h1.33z"/><use xlink:href="#b" transform="matrix(1,0,0,1,-1520.9059586895528,94.53333333333349) translate(0.004999999999999005 14.4)"/><path d="M-1740-120h380V60h-380z" stroke="#000" stroke-width="2" fill="#fff"/><use xlink:href="#c" transform="matrix(1,0,0,1,-1735,-115) translate(153.1 14.4)"/><path d="M-1517.1-60h109.83M-1517.08-60h-1.02" stroke="#000" stroke-width="2" fill="none"/><path d="M-1392-60l-14.27 4.64v-9.28z" stroke="#000" stroke-width="2"/><use xlink:href="#d" transform="matrix(1,0,0,1,-1490.862037037037,-85.59999999999994) translate(0 14.4)"/><use xlink:href="#e" transform="matrix(1,0,0,1,-1490.862037037037,-85.59999999999994) translate(42.95 14.4)"/><path d="M-1699-60h109.06" fill="none"/><path d="M-1698-60c0 .55-.45 1-1 1s-1-.45-1-1 .45-1 1-1 1 .45 1 1zm7.8 0c0 .55-.46 1-1 1-.56 0-1-.45-1-1s.44-1 1-1c.54 0 1 .45 1 1zm7.78 0c0 .55-.45 1-1 1s-1-.45-1-1 .45-1 1-1 1 .45 1 1zm7.8 0c0 .55-.46 1-1 1-.56 0-1-.45-1-1s.44-1 1-1c.54 0 1 .45 1 1zm7.78 0c0 .55-.45 1-1 1s-1-.45-1-1 .45-1 1-1 1 .45 1 1zm7.8 0c0 .55-.46 1-1 1-.56 0-1-.45-1-1s.44-1 1-1c.54 0 1 .45 1 1zm7.78 0c0 .55-.45 1-1 1s-1-.45-1-1 .45-1 1-1 1 .45 1 1zm7.8 0c0 .55-.46 1-1 1-.56 0-1-.45-1-1s.44-1 1-1c.54 0 1 .45 1 1zm7.78 0c0 .55-.45 1-1 1s-1-.45-1-1 .45-1 1-1 1 .45 1 1zm7.8 0c0 .55-.46 1-1 1-.56 0-1-.45-1-1s.44-1 1-1c.54 0 1 .45 1 1zm7.78 0c0 .55-.45 1-1 1s-1-.45-1-1 .45-1 1-1 1 .45 1 1zm7.8 0c0 .55-.46 1-1 1-.56 0-1-.45-1-1s.44-1 1-1c.54 0 1 .45 1 1zm7.78 0c0 .55-.45 1-1 1s-1-.45-1-1 .45-1 1-1 1 .45 1 1zm7.8 0c0 .55-.46 1-1 1-.56 0-1-.45-1-1s.44-1 1-1c.54 0 1 .45 1 1z"/><path d="M-1698.97-60h-1.03" stroke="#000" stroke-width="2" fill="none"/><path d="M-1574.67-60l-14.27 4.64v-9.28z" stroke="#000" stroke-width="2"/><use xlink:href="#f" transform="matrix(1,0,0,1,-1692.7991001187659,-85.59999999999997) translate(0 14.4)"/><use xlink:href="#e" transform="matrix(1,0,0,1,-1692.7991001187659,-85.59999999999997) translate(62.85000000000001 14.4)"/><path d="M-1720-20h100v60h-100z" stroke="#000" stroke-width="2" fill="#ffeca9"/><use xlink:href="#g" transform="matrix(1,0,0,1,-1715,-15) translate(7.074999999999996 17.799999999999997)"/><use xlink:href="#h" transform="matrix(1,0,0,1,-1715,-15) translate(-3.9750000000000014 39.4)"/><path d="M-1597-20h100v60h-100z" stroke="#000" stroke-width="2" fill="#c7e8ac"/><use xlink:href="#i" transform="matrix(1,0,0,1,-1592,-15) translate(29.5 17.799999999999997)"/><use xlink:href="#j" transform="matrix(1,0,0,1,-1592,-15) translate(-3.9750000000000014 39.4)"/><path d="M-1474-20h100v60h-100z" stroke="#000" stroke-width="2" fill="#c1e4f7"/><use xlink:href="#k" transform="matrix(1,0,0,1,-1469,-14.999999999999943) translate(10 17.799999999999997)"/><use xlink:href="#l" transform="matrix(1,0,0,1,-1469,-14.999999999999943) translate(29 39.4)"/><path d="M-1060-80h280v500h-280z" stroke="#000" stroke-width="2" fill="#fff"/><use xlink:href="#m" transform="matrix(1,0,0,1,-1055,-75) translate(90.07499999999999 14.4)"/><use xlink:href="#n" transform="matrix(1,0,0,1,-1055,-75) translate(123.07499999999999 14.4)"/><path d="M-1020 80h200v80h-200z" stroke="#000" stroke-width="2" fill="#c7e8ac"/><use xlink:href="#m" transform="matrix(1,0,0,1,-1015,84.99999999999989) translate(48.55 14.4)"/><use xlink:href="#o" transform="matrix(1,0,0,1,-1015,84.99999999999989) translate(81.55 14.4)"/><path d="M-1020 220h200v180h-200z" stroke="#000" stroke-width="2" fill="#c7e8ac"/><use xlink:href="#m" transform="matrix(1,0,0,1,-1015,224.9999999999999) translate(62.5 162.8)"/><use xlink:href="#p" transform="matrix(1,0,0,1,-1015,224.9999999999999) translate(95.5 162.8)"/><path d="M-1000 260h160v100h-160z" stroke="#000" stroke-width="2" fill="#99d2f2"/><use xlink:href="#q" transform="matrix(1,0,0,1,-995,264.9999999999998) translate(16.599999999999994 48.6)"/><use xlink:href="#r" transform="matrix(1,0,0,1,-995,264.9999999999998) translate(45.55 48.6)"/><path d="M-920 162v78.5" stroke="#000" stroke-width="2" fill="none"/><path d="M-919 162.03h-2V161h2z"/><path d="M-920 255.76l-4.64-14.26h9.28z" stroke="#000" stroke-width="2"/><path d="M-1020-48h200v80h-200z" stroke="#000" stroke-width="2" fill="#ffeca9"/><use xlink:href="#s" transform="matrix(1,0,0,1,-1015,-43) translate(30.64999999999999 38.6)"/><use xlink:href="#t" transform="matrix(1,0,0,1,-1015,-43) translate(111.5 38.6)"/><path d="M-1380 90h180v250h-180z" stroke="#000" stroke-width="2" fill="#ffeca9"/><use xlink:href="#u" transform="matrix(1,0,0,1,-1375,95.00000000000006) translate(47.074999999999996 14.4)"/><path d="M-1195.77 120h156.27M-1195.74 120h-1.03" stroke="#000" stroke-width="2" fill="none"/><path d="M-1024.24 120l-14.26 4.64v-9.28z" stroke="#000" stroke-width="2"/><use xlink:href="#b" transform="matrix(1,0,0,1,-1156.912037037037,94.39999999999986) translate(0.004999999999999005 14.4)"/><path d="M-1289.3 69.8l.3.7-.3.7-.7.3-.7-.3-.3-.7.3-.7.7-.3zm0-8.07l.3.7-.3.72-.7.3-.7-.3-.3-.7.3-.72.7-.3zm0-8.06l.3.7-.3.72-.7.28-.7-.3-.3-.7.3-.7.7-.3zm0-8.05l.3.7-.3.7-.7.3-.7-.3-.3-.7.3-.7.7-.3zm0-8.06l.3.7-.3.7-.7.3-.7-.3-.3-.7.3-.7.7-.3zm0-8.06l.3.7-.3.7-.7.3-.7-.3-.3-.7.3-.7.7-.3zm0-8.06l.3.7-.3.72-.7.3-.7-.3-.3-.7.3-.72.7-.3zm0-8.06l.3.7-.3.72-.7.3-.7-.3-.3-.7.3-.72.7-.3zm0-8.05l.3.7-.3.7-.7.3-.7-.3-.3-.7.3-.7.7-.3zm0-8.06l.3.7-.3.7-.7.3-.7-.3-.3-.7.3-.7.7-.3zm2.1-5.98l.28.7-.3.7-.7.3-.7-.3-.3-.7.3-.7.7-.3zm8.05 0l.3.7-.3.7-.7.3-.72-.3-.3-.7.3-.7.7-.3zm8.06 0l.3.7-.3.7-.7.3-.7-.3-.3-.7.3-.7.7-.3zm8.06 0l.3.7-.3.7-.7.3-.7-.3-.3-.7.3-.7.7-.3zm8.06 0l.3.7-.3.7-.7.3-.7-.3-.3-.7.3-.7.7-.3zm8.06 0l.3.7-.3.7-.7.3-.7-.3-.3-.7.3-.7.7-.3zm8.06 0l.3.7-.3.7-.7.3-.72-.3-.3-.7.3-.7.7-.3zm8.06 0l.3.7-.3.7-.7.3-.72-.3-.3-.7.3-.7.7-.3zm8.05 0l.3.7-.3.7-.7.3-.7-.3-.3-.7.3-.7.7-.3zm8.06 0l.3.7-.3.7-.7.3-.7-.3-.3-.7.3-.7.7-.3zm96.7 0l.3.7-.3.7-.7.3-.7-.3-.3-.7.3-.7.7-.3zm8.07 0l.3.7-.3.7-.7.3-.72-.3-.3-.7.3-.7.7-.3zm8.06 0l.3.7-.3.7-.7.3-.72-.3-.28-.7.3-.7.7-.3zm8.05 0l.3.7-.3.7-.7.3-.7-.3-.3-.7.3-.7.7-.3zm8.06 0l.3.7-.3.7-.7.3-.7-.3-.3-.7.3-.7.7-.3zm8.06 0l.3.7-.3.7-.7.3-.7-.3-.3-.7.3-.7.7-.3zm8.06 0l.3.7-.3.7-.7.3-.72-.3-.3-.7.3-.7.7-.3zm8.06 0l.3.7-.3.7-.7.3-.72-.3-.3-.7.3-.7.7-.3zm8.05 0l.3.7-.3.7-.7.3-.7-.3-.3-.7.3-.7.7-.3zm8.06 0l.3.7-.3.7-.7.3-.7-.3-.3-.7.3-.7.7-.3zm8.06 0l.28.7-.3.7-.7.3-.7-.3-.3-.7.3-.7.7-.3zm8.05 0l.3.7-.3.7-.7.3-.72-.3-.3-.7.3-.7.7-.3zm8.06 0l.3.7-.3.7-.7.3-.7-.3-.3-.7.3-.7.7-.3z"/><path d="M-1021-7h-1.03v-2h1.03zM-1290 85.76l-4.64-14.26h9.28z"/><path d="M-1290 89l-6-18.5h12zm-3.26-16.5l3.26 10.03 3.26-10.03z"/><g><use xlink:href="#v" transform="matrix(1,0,0,1,-1212.5677407263327,-29.599999999999774) translate(0.005000000000002558 14.4)"/><use xlink:href="#w" transform="matrix(1,0,0,1,-1212.5677407263327,-29.599999999999774) translate(18.930000000000007 36)"/></g><path d="M-1002 310h-178.5" stroke="#000" stroke-width="2" fill="none"/><path d="M-1001 311h-1.03v-2h1.03z"/><path d="M-1195.76 310l14.26-4.64v9.28z" stroke="#000" stroke-width="2"/><g><use xlink:href="#x" transform="matrix(1,0,0,1,-1148.7453703703702,313.9999999999998) translate(0.004999999999999005 14.4)"/></g><path d="M-1382 310h-147.07" stroke="#000" stroke-width="2" fill="none"/><path d="M-1381 311h-1.03v-2h1.03z"/><path d="M-1544.33 310l14.26-4.64v9.28z" stroke="#000" stroke-width="2"/><g><use xlink:href="#x" transform="matrix(1,0,0,1,-1492.258466442419,313.9999999999998) translate(0.004999999999999005 14.4)"/></g><defs><path d="M33 0v-248h34V0H33" id="y"/><path d="M117-194c89-4 53 116 60 194h-32v-121c0-31-8-49-39-48C34-167 62-67 57 0H25l-1-190h30c1 10-1 24 2 32 11-22 29-35 61-36" id="z"/><path d="M59-47c-2 24 18 29 38 22v24C64 9 27 4 27-40v-127H5v-23h24l9-43h21v43h35v23H59v120" id="A"/><path d="M100-194c63 0 86 42 84 106H49c0 40 14 67 53 68 26 1 43-12 49-29l28 8c-11 28-37 45-77 45C44 4 14-33 15-96c1-61 26-98 85-98zm52 81c6-60-76-77-97-28-3 7-6 17-6 28h103" id="B"/><path d="M114-163C36-179 61-72 57 0H25l-1-190h30c1 12-1 29 2 39 6-27 23-49 58-41v29" id="C"/><g id="a"><use transform="matrix(0.05,0,0,0.05,0,0)" xlink:href="#y"/><use transform="matrix(0.05,0,0,0.05,5,0)" xlink:href="#z"/><use transform="matrix(0.05,0,0,0.05,15,0)" xlink:href="#A"/><use transform="matrix(0.05,0,0,0.05,20,0)" xlink:href="#B"/><use transform="matrix(0.05,0,0,0.05,30,0)" xlink:href="#C"/><use transform="matrix(0.05,0,0,0.05,35.95,0)" xlink:href="#z"/><use transform="matrix(0.05,0,0,0.05,45.95,0)" xlink:href="#B"/><use transform="matrix(0.05,0,0,0.05,55.95,0)" xlink:href="#A"/></g><path d="M177-190C167-65 218 103 67 71c-23-6-38-20-44-43l32-5c15 47 100 32 89-28v-30C133-14 115 1 83 1 29 1 15-40 15-95c0-56 16-97 71-98 29-1 48 16 59 35 1-10 0-23 2-32h30zM94-22c36 0 50-32 50-73 0-42-14-75-50-75-39 0-46 34-46 75s6 73 46 73" id="D"/><path d="M135-143c-3-34-86-38-87 0 15 53 115 12 119 90S17 21 10-45l28-5c4 36 97 45 98 0-10-56-113-15-118-90-4-57 82-63 122-42 12 7 21 19 24 35" id="E"/><g id="b"><use transform="matrix(0.05,0,0,0.05,0,0)" xlink:href="#y"/><use transform="matrix(0.05,0,0,0.05,5,0)" xlink:href="#z"/><use transform="matrix(0.05,0,0,0.05,15,0)" xlink:href="#D"/><use transform="matrix(0.05,0,0,0.05,25,0)" xlink:href="#C"/><use transform="matrix(0.05,0,0,0.05,30.950000000000003,0)" xlink:href="#B"/><use transform="matrix(0.05,0,0,0.05,40.95,0)" xlink:href="#E"/><use transform="matrix(0.05,0,0,0.05,49.95,0)" xlink:href="#E"/></g><path d="M24 0v-248h52v208h133V0H24" id="F"/><path d="M185-48c-13 30-37 53-82 52C43 2 14-33 14-96s30-98 90-98c62 0 83 45 84 108H66c0 31 8 55 39 56 18 0 30-7 34-22zm-45-69c5-46-57-63-70-21-2 6-4 13-4 21h74" id="G"/><path d="M195-6C206 82 75 100 31 46c-4-6-6-13-8-21l49-6c3 16 16 24 34 25 40 0 42-37 40-79-11 22-30 35-61 35-53 0-70-43-70-97 0-56 18-96 73-97 30 0 46 14 59 34l2-30h47zm-90-29c32 0 41-27 41-63 0-35-9-62-40-62-32 0-39 29-40 63 0 36 9 62 39 62" id="H"/><path d="M135-194c87-1 58 113 63 194h-50c-7-57 23-157-34-157-59 0-34 97-39 157H25l-1-190h47c2 12-1 28 3 38 12-26 28-41 61-42" id="I"/><path d="M88-194c31-1 46 15 58 34l-1-101h50l1 261h-48c-2-10 0-23-3-31C134-8 116 4 84 4 32 4 16-41 15-95c0-56 19-97 73-99zm17 164c33 0 40-30 41-66 1-37-9-64-41-64s-38 30-39 65c0 43 13 65 39 65" id="J"/><g id="c"><use transform="matrix(0.05,0,0,0.05,0,0)" xlink:href="#F"/><use transform="matrix(0.05,0,0,0.05,10.950000000000001,0)" xlink:href="#G"/><use transform="matrix(0.05,0,0,0.05,20.950000000000003,0)" xlink:href="#H"/><use transform="matrix(0.05,0,0,0.05,31.900000000000006,0)" xlink:href="#G"/><use transform="matrix(0.05,0,0,0.05,41.900000000000006,0)" xlink:href="#I"/><use transform="matrix(0.05,0,0,0.05,52.85,0)" xlink:href="#J"/></g><path d="M30-248c118-7 216 8 213 122C240-48 200 0 122 0H30v-248zM63-27c89 8 146-16 146-99s-60-101-146-95v194" id="K"/><path d="M141-36C126-15 110 5 73 4 37 3 15-17 15-53c-1-64 63-63 125-63 3-35-9-54-41-54-24 1-41 7-42 31l-33-3c5-37 33-52 76-52 45 0 72 20 72 64v82c-1 20 7 32 28 27v20c-31 9-61-2-59-35zM48-53c0 20 12 33 32 33 41-3 63-29 60-74-43 2-92-5-92 41" id="L"/><g id="d"><use transform="matrix(0.05,0,0,0.05,0,0)" xlink:href="#K"/><use transform="matrix(0.05,0,0,0.05,12.950000000000001,0)" xlink:href="#L"/><use transform="matrix(0.05,0,0,0.05,22.950000000000003,0)" xlink:href="#A"/><use transform="matrix(0.05,0,0,0.05,27.950000000000003,0)" xlink:href="#L"/></g><path d="M101-234c-31-9-42 10-38 44h38v23H63V0H32v-167H5v-23h27c-7-52 17-82 69-68v24" id="M"/><path d="M24 0v-261h32V0H24" id="N"/><path d="M100-194c62-1 85 37 85 99 1 63-27 99-86 99S16-35 15-95c0-66 28-99 85-99zM99-20c44 1 53-31 53-75 0-43-8-75-51-75s-53 32-53 75 10 74 51 75" id="O"/><path d="M206 0h-36l-40-164L89 0H53L-1-190h32L70-26l43-164h34l41 164 42-164h31" id="P"/><g id="e"><use transform="matrix(0.05,0,0,0.05,0,0)" xlink:href="#M"/><use transform="matrix(0.05,0,0,0.05,5,0)" xlink:href="#N"/><use transform="matrix(0.05,0,0,0.05,8.95,0)" xlink:href="#O"/><use transform="matrix(0.05,0,0,0.05,18.95,0)" xlink:href="#P"/></g><path d="M212-179c-10-28-35-45-73-45-59 0-87 40-87 99 0 60 29 101 89 101 43 0 62-24 78-52l27 14C228-24 195 4 139 4 59 4 22-46 18-125c-6-104 99-153 187-111 19 9 31 26 39 46" id="Q"/><g id="f"><use transform="matrix(0.05,0,0,0.05,0,0)" xlink:href="#Q"/><use transform="matrix(0.05,0,0,0.05,12.950000000000001,0)" xlink:href="#O"/><use transform="matrix(0.05,0,0,0.05,22.950000000000003,0)" xlink:href="#z"/><use transform="matrix(0.05,0,0,0.05,32.95,0)" xlink:href="#A"/><use transform="matrix(0.05,0,0,0.05,37.95,0)" xlink:href="#C"/><use transform="matrix(0.05,0,0,0.05,43.900000000000006,0)" xlink:href="#O"/><use transform="matrix(0.05,0,0,0.05,53.900000000000006,0)" xlink:href="#N"/></g><path d="M185-189c-5-48-123-54-124 2 14 75 158 14 163 119 3 78-121 87-175 55-17-10-28-26-33-46l33-7c5 56 141 63 141-1 0-78-155-14-162-118-5-82 145-84 179-34 5 7 8 16 11 25" id="R"/><path d="M210-169c-67 3-38 105-44 169h-31v-121c0-29-5-50-35-48C34-165 62-65 56 0H25l-1-190h30c1 10-1 24 2 32 10-44 99-50 107 0 11-21 27-35 58-36 85-2 47 119 55 194h-31v-121c0-29-5-49-35-48" id="S"/><path d="M190 0L58-211 59 0H30v-248h39L202-35l-2-213h31V0h-41" id="T"/><g id="g"><use transform="matrix(0.05,0,0,0.05,0,0)" xlink:href="#R"/><use transform="matrix(0.05,0,0,0.05,12,0)" xlink:href="#S"/><use transform="matrix(0.05,0,0,0.05,26.950000000000003,0)" xlink:href="#L"/><use transform="matrix(0.05,0,0,0.05,36.95,0)" xlink:href="#C"/><use transform="matrix(0.05,0,0,0.05,42.900000000000006,0)" xlink:href="#A"/><use transform="matrix(0.05,0,0,0.05,47.900000000000006,0)" xlink:href="#T"/><use transform="matrix(0.05,0,0,0.05,60.85,0)" xlink:href="#L"/><use transform="matrix(0.05,0,0,0.05,70.85000000000001,0)" xlink:href="#A"/></g><path d="M96-169c-40 0-48 33-48 73s9 75 48 75c24 0 41-14 43-38l32 2c-6 37-31 61-74 61-59 0-76-41-82-99-10-93 101-131 147-64 4 7 5 14 7 22l-32 3c-4-21-16-35-41-35" id="U"/><path d="M115-194c55 1 70 41 70 98S169 2 115 4C84 4 66-9 55-30l1 105H24l-1-265h31l2 30c10-21 28-34 59-34zm-8 174c40 0 45-34 45-75s-6-73-45-74c-42 0-51 32-51 76 0 43 10 73 51 73" id="V"/><g id="h"><use transform="matrix(0.05,0,0,0.05,0,0)" xlink:href="#U"/><use transform="matrix(0.05,0,0,0.05,9,0)" xlink:href="#O"/><use transform="matrix(0.05,0,0,0.05,19,0)" xlink:href="#S"/><use transform="matrix(0.05,0,0,0.05,33.95,0)" xlink:href="#V"/><use transform="matrix(0.05,0,0,0.05,43.95,0)" xlink:href="#O"/><use transform="matrix(0.05,0,0,0.05,53.95,0)" xlink:href="#z"/><use transform="matrix(0.05,0,0,0.05,63.95,0)" xlink:href="#B"/><use transform="matrix(0.05,0,0,0.05,73.95,0)" xlink:href="#z"/><use transform="matrix(0.05,0,0,0.05,83.95,0)" xlink:href="#A"/><use transform="matrix(0.05,0,0,0.05,88.95,0)" xlink:href="#E"/></g><path d="M194 0L95-120 63-95V0H30v-248h33v124l119-124h40L117-140 236 0h-42" id="W"/><path d="M134-131c28 9 52 24 51 62-1 50-34 73-85 73S17-19 16-69c0-36 21-54 49-61-75-25-45-126 34-121 46 3 78 18 79 63 0 33-17 51-44 57zm-34-11c31 1 46-15 46-44 0-28-17-43-47-42-29 0-46 13-45 42 1 28 16 44 46 44zm1 122c35 0 51-18 51-52 0-30-18-46-53-46-33 0-51 17-51 47 0 34 19 51 53 51" id="X"/><g id="i"><use transform="matrix(0.05,0,0,0.05,0,0)" xlink:href="#W"/><use transform="matrix(0.05,0,0,0.05,12,0)" xlink:href="#X"/><use transform="matrix(0.05,0,0,0.05,22,0)" xlink:href="#E"/></g><g id="j"><use transform="matrix(0.05,0,0,0.05,0,0)" xlink:href="#U"/><use transform="matrix(0.05,0,0,0.05,9,0)" xlink:href="#O"/><use transform="matrix(0.05,0,0,0.05,19,0)" xlink:href="#S"/><use transform="matrix(0.05,0,0,0.05,33.95,0)" xlink:href="#V"/><use transform="matrix(0.05,0,0,0.05,43.95,0)" xlink:href="#O"/><use transform="matrix(0.05,0,0,0.05,53.95,0)" xlink:href="#z"/><use transform="matrix(0.05,0,0,0.05,63.95,0)" xlink:href="#B"/><use transform="matrix(0.05,0,0,0.05,73.95,0)" xlink:href="#z"/><use transform="matrix(0.05,0,0,0.05,83.95,0)" xlink:href="#A"/><use transform="matrix(0.05,0,0,0.05,88.95,0)" xlink:href="#E"/></g><path d="M30 0v-248h187v28H63v79h144v27H63v87h162V0H30" id="Y"/><path d="M141 0L90-78 38 0H4l68-98-65-92h35l48 74 47-74h35l-64 92 68 98h-35" id="Z"/><path d="M85-194c31 0 48 13 60 33l-1-100h32l1 261h-30c-2-10 0-23-3-31C134-8 116 4 85 4 32 4 16-35 15-94c0-66 23-100 70-100zm9 24c-40 0-46 34-46 75 0 40 6 74 45 74 42 0 51-32 51-76 0-42-9-74-50-73" id="aa"/><g id="k"><use transform="matrix(0.05,0,0,0.05,0,0)" xlink:href="#Y"/><use transform="matrix(0.05,0,0,0.05,12,0)" xlink:href="#Z"/><use transform="matrix(0.05,0,0,0.05,21,0)" xlink:href="#V"/><use transform="matrix(0.05,0,0,0.05,31,0)" xlink:href="#O"/><use transform="matrix(0.05,0,0,0.05,41,0)" xlink:href="#E"/><use transform="matrix(0.05,0,0,0.05,50,0)" xlink:href="#B"/><use transform="matrix(0.05,0,0,0.05,60,0)" xlink:href="#aa"/></g><path d="M205 0l-28-72H64L36 0H1l101-248h38L239 0h-34zm-38-99l-47-123c-12 45-31 82-46 123h93" id="ab"/><g id="l"><use transform="matrix(0.05,0,0,0.05,0,0)" xlink:href="#ab"/><use transform="matrix(0.05,0,0,0.05,12,0)" xlink:href="#V"/><use transform="matrix(0.05,0,0,0.05,22,0)" xlink:href="#V"/></g><path d="M143 0L79-87 56-68V0H24v-261h32v163l83-92h37l-77 82L181 0h-38" id="ac"/><g id="m"><use transform="matrix(0.05,0,0,0.05,0,0)" xlink:href="#ac"/><use transform="matrix(0.05,0,0,0.05,9,0)" xlink:href="#X"/><use transform="matrix(0.05,0,0,0.05,19,0)" xlink:href="#E"/></g><path d="M84 4C-5 8 30-112 23-190h32v120c0 31 7 50 39 49 72-2 45-101 50-169h31l1 190h-30c-1-10 1-25-2-33-11 22-28 36-60 37" id="ad"/><g id="n"><use transform="matrix(0.05,0,0,0.05,0,0)" xlink:href="#Q"/><use transform="matrix(0.05,0,0,0.05,12.950000000000001,0)" xlink:href="#N"/><use transform="matrix(0.05,0,0,0.05,16.900000000000002,0)" xlink:href="#ad"/><use transform="matrix(0.05,0,0,0.05,26.900000000000002,0)" xlink:href="#E"/><use transform="matrix(0.05,0,0,0.05,35.900000000000006,0)" xlink:href="#A"/><use transform="matrix(0.05,0,0,0.05,40.900000000000006,0)" xlink:href="#B"/><use transform="matrix(0.05,0,0,0.05,50.900000000000006,0)" xlink:href="#C"/></g><path d="M108 0H70L1-190h34L89-25l56-165h34" id="ae"/><path d="M24-231v-30h32v30H24zM24 0v-190h32V0H24" id="af"/><g id="o"><use transform="matrix(0.05,0,0,0.05,0,0)" xlink:href="#R"/><use transform="matrix(0.05,0,0,0.05,12,0)" xlink:href="#B"/><use transform="matrix(0.05,0,0,0.05,22,0)" xlink:href="#C"/><use transform="matrix(0.05,0,0,0.05,27.950000000000003,0)" xlink:href="#ae"/><use transform="matrix(0.05,0,0,0.05,36.95,0)" xlink:href="#af"/><use transform="matrix(0.05,0,0,0.05,40.900000000000006,0)" xlink:href="#U"/><use transform="matrix(0.05,0,0,0.05,49.900000000000006,0)" xlink:href="#B"/></g><path d="M30-248c87 1 191-15 191 75 0 78-77 80-158 76V0H30v-248zm33 125c57 0 124 11 124-50 0-59-68-47-124-48v98" id="ag"/><g id="p"><use transform="matrix(0.05,0,0,0.05,0,0)" xlink:href="#ag"/><use transform="matrix(0.05,0,0,0.05,12,0)" xlink:href="#O"/><use transform="matrix(0.05,0,0,0.05,22,0)" xlink:href="#aa"/></g><path d="M240 0l2-218c-23 76-54 145-80 218h-23L58-218 59 0H30v-248h44l77 211c21-75 51-140 76-211h43V0h-30" id="ah"/><path d="M179-190L93 31C79 59 56 82 12 73V49c39 6 53-20 64-50L1-190h34L92-34l54-156h33" id="ai"/><g id="q"><use transform="matrix(0.05,0,0,0.05,0,0)" xlink:href="#ah"/><use transform="matrix(0.05,0,0,0.05,14.950000000000001,0)" xlink:href="#ai"/></g><g id="r"><use transform="matrix(0.05,0,0,0.05,0,0)" xlink:href="#ab"/><use transform="matrix(0.05,0,0,0.05,12,0)" xlink:href="#V"/><use transform="matrix(0.05,0,0,0.05,22,0)" xlink:href="#V"/><use transform="matrix(0.05,0,0,0.05,32,0)" xlink:href="#N"/><use transform="matrix(0.05,0,0,0.05,35.95,0)" xlink:href="#af"/><use transform="matrix(0.05,0,0,0.05,39.900000000000006,0)" xlink:href="#U"/><use transform="matrix(0.05,0,0,0.05,48.900000000000006,0)" xlink:href="#L"/><use transform="matrix(0.05,0,0,0.05,58.900000000000006,0)" xlink:href="#A"/><use transform="matrix(0.05,0,0,0.05,63.900000000000006,0)" xlink:href="#af"/><use transform="matrix(0.05,0,0,0.05,67.85000000000001,0)" xlink:href="#O"/><use transform="matrix(0.05,0,0,0.05,77.85000000000001,0)" xlink:href="#z"/></g><g id="s"><use transform="matrix(0.05,0,0,0.05,0,0)" xlink:href="#R"/><use transform="matrix(0.05,0,0,0.05,12,0)" xlink:href="#S"/><use transform="matrix(0.05,0,0,0.05,26.950000000000003,0)" xlink:href="#L"/><use transform="matrix(0.05,0,0,0.05,36.95,0)" xlink:href="#C"/><use transform="matrix(0.05,0,0,0.05,42.900000000000006,0)" xlink:href="#A"/><use transform="matrix(0.05,0,0,0.05,47.900000000000006,0)" xlink:href="#T"/><use transform="matrix(0.05,0,0,0.05,60.85,0)" xlink:href="#L"/><use transform="matrix(0.05,0,0,0.05,70.85000000000001,0)" xlink:href="#A"/></g><path d="M233-177c-1 41-23 64-60 70L243 0h-38l-65-103H63V0H30v-248c88 3 205-21 203 71zM63-129c60-2 137 13 137-47 0-61-80-42-137-45v92" id="aj"/><g id="t"><use transform="matrix(0.05,0,0,0.05,0,0)" xlink:href="#Q"/><use transform="matrix(0.05,0,0,0.05,12.950000000000001,0)" xlink:href="#aj"/><use transform="matrix(0.05,0,0,0.05,25.900000000000002,0)" xlink:href="#K"/><use transform="matrix(0.05,0,0,0.05,38.85,0)" xlink:href="#E"/></g><g id="u"><use transform="matrix(0.05,0,0,0.05,0,0)" xlink:href="#R"/><use transform="matrix(0.05,0,0,0.05,12,0)" xlink:href="#S"/><use transform="matrix(0.05,0,0,0.05,26.950000000000003,0)" xlink:href="#L"/><use transform="matrix(0.05,0,0,0.05,36.95,0)" xlink:href="#C"/><use transform="matrix(0.05,0,0,0.05,42.900000000000006,0)" xlink:href="#A"/><use transform="matrix(0.05,0,0,0.05,47.900000000000006,0)" xlink:href="#T"/><use transform="matrix(0.05,0,0,0.05,60.85,0)" xlink:href="#L"/><use transform="matrix(0.05,0,0,0.05,70.85000000000001,0)" xlink:href="#A"/></g><path d="M63-220v92h138v28H63V0H30v-248h175v28H63" id="ak"/><g id="v"><use transform="matrix(0.05,0,0,0.05,0,0)" xlink:href="#ak"/><use transform="matrix(0.05,0,0,0.05,10.950000000000001,0)" xlink:href="#O"/><use transform="matrix(0.05,0,0,0.05,20.950000000000003,0)" xlink:href="#C"/><use transform="matrix(0.05,0,0,0.05,26.900000000000002,0)" xlink:href="#P"/><use transform="matrix(0.05,0,0,0.05,39.85,0)" xlink:href="#L"/><use transform="matrix(0.05,0,0,0.05,49.85,0)" xlink:href="#C"/><use transform="matrix(0.05,0,0,0.05,55.800000000000004,0)" xlink:href="#aa"/><use transform="matrix(0.05,0,0,0.05,65.80000000000001,0)" xlink:href="#af"/><use transform="matrix(0.05,0,0,0.05,69.75000000000001,0)" xlink:href="#z"/><use transform="matrix(0.05,0,0,0.05,79.75000000000001,0)" xlink:href="#D"/></g><g id="w"><use transform="matrix(0.05,0,0,0.05,0,0)" xlink:href="#Q"/><use transform="matrix(0.05,0,0,0.05,12.950000000000001,0)" xlink:href="#O"/><use transform="matrix(0.05,0,0,0.05,22.950000000000003,0)" xlink:href="#z"/><use transform="matrix(0.05,0,0,0.05,32.95,0)" xlink:href="#M"/><use transform="matrix(0.05,0,0,0.05,37.95,0)" xlink:href="#af"/><use transform="matrix(0.05,0,0,0.05,41.900000000000006,0)" xlink:href="#D"/></g><g id="x"><use transform="matrix(0.05,0,0,0.05,0,0)" xlink:href="#Y"/><use transform="matrix(0.05,0,0,0.05,12,0)" xlink:href="#D"/><use transform="matrix(0.05,0,0,0.05,22,0)" xlink:href="#C"/><use transform="matrix(0.05,0,0,0.05,27.950000000000003,0)" xlink:href="#B"/><use transform="matrix(0.05,0,0,0.05,37.95,0)" xlink:href="#E"/><use transform="matrix(0.05,0,0,0.05,46.95,0)" xlink:href="#E"/></g></defs></g></svg>